<svg width="18" height="18" viewBox="0 0 18 18" fill="none" xmlns="http://www.w3.org/2000/svg">
<path d="M17.04 7.86748C17.0442 7.83261 17.0442 7.79735 17.04 7.76248C17.0642 7.66953 17.0645 7.57199 17.0409 7.47889C17.0173 7.3858 16.9705 7.30018 16.905 7.22998L10.995 1.22998C10.9489 1.1842 10.8957 1.14621 10.8375 1.11748H10.785C10.7378 1.1105 10.6897 1.1105 10.6425 1.11748H5.85C4.5769 1.15893 3.36572 1.67667 2.45605 2.56829C1.54637 3.45991 1.00446 4.66047 0.9375 5.93248V9.59998C0.9375 9.74717 0.995973 9.88834 1.10006 9.99242C1.20414 10.0965 1.3453 10.155 1.4925 10.155C1.6397 10.155 1.78086 10.0965 1.88494 9.99242C1.98903 9.88834 2.0475 9.74717 2.0475 9.59998V5.99998C2.08627 5.00318 2.49911 4.05756 3.20379 3.35149C3.90848 2.64542 4.85328 2.23071 5.85 2.18998H10.0275V5.18998C10.0275 5.98563 10.3436 6.74869 10.9062 7.3113C11.4688 7.87391 12.2319 8.18998 13.0275 8.18998H15.96V12.1575C15.964 12.6332 15.8742 13.105 15.6958 13.5461C15.5174 13.9871 15.2538 14.3886 14.9202 14.7278C14.5866 15.067 14.1895 15.3371 13.7515 15.5228C13.3135 15.7085 12.8432 15.8061 12.3675 15.81H7.5C7.35082 15.81 7.20774 15.8692 7.10225 15.9747C6.99676 16.0802 6.9375 16.2233 6.9375 16.3725C6.9375 16.5217 6.99676 16.6647 7.10225 16.7702C7.20774 16.8757 7.35082 16.935 7.5 16.935H12.33C13.5865 16.9231 14.7871 16.4135 15.6685 15.518C16.55 14.6225 17.0405 13.414 17.0325 12.1575L17.04 7.86748ZM13.005 7.06498C12.5063 7.05905 12.0303 6.85628 11.6804 6.50085C11.3306 6.14543 11.1355 5.66616 11.1375 5.16748V2.99998L15.15 7.06498H13.005ZM5.505 14.025C5.50501 14.1709 5.44757 14.3109 5.3451 14.4148C5.24264 14.5187 5.10339 14.578 4.9575 14.58H4.035V15.4875C4.03501 15.6354 3.97678 15.7773 3.87291 15.8826C3.76904 15.9879 3.62788 16.048 3.48 16.05V16.05C3.40711 16.049 3.33514 16.0337 3.26817 16.0049C3.20121 15.9761 3.14058 15.9344 3.08974 15.8821C3.0389 15.8299 2.99884 15.7682 2.97186 15.7004C2.94488 15.6327 2.93151 15.5604 2.9325 15.4875V14.5575H2.025C1.95242 14.5546 1.88114 14.5373 1.8153 14.5066C1.74947 14.4759 1.6904 14.4324 1.64154 14.3787C1.59268 14.3249 1.555 14.262 1.5307 14.1936C1.5064 14.1251 1.49596 14.0525 1.5 13.98C1.50379 13.834 1.56349 13.695 1.66676 13.5917C1.77003 13.4885 1.909 13.4288 2.055 13.425H2.955V12.525C2.96237 12.3869 3.02106 12.2565 3.11956 12.1593C3.21806 12.0622 3.34928 12.0054 3.4875 12C3.56039 12.001 3.63236 12.0163 3.69933 12.0451C3.76629 12.0739 3.82692 12.1156 3.87776 12.1678C3.9286 12.2201 3.96866 12.2818 3.99564 12.3495C4.02262 12.4172 4.03599 12.4896 4.035 12.5625V13.4775H4.9425C5.08651 13.4813 5.22358 13.5402 5.32544 13.642C5.42731 13.7439 5.48621 13.881 5.49 14.025H5.505Z" fill="#A1A5B7"/>
</svg>
