<svg width="24" height="24" viewBox="0 0 24 24" fill="none" xmlns="http://www.w3.org/2000/svg">
<path d="M22.72 10.49C22.7257 10.4435 22.7257 10.3965 22.72 10.35C22.7522 10.2261 22.7526 10.096 22.7212 9.97189C22.6897 9.84776 22.6274 9.7336 22.54 9.64L14.66 1.64C14.5986 1.57896 14.5277 1.52831 14.45 1.49H14.38C14.317 1.48069 14.253 1.48069 14.19 1.49H7.8C6.10254 1.54527 4.48763 2.23559 3.27473 3.42442C2.06183 4.61324 1.33928 6.21399 1.25 7.91V12.8C1.25 12.9963 1.32796 13.1845 1.46674 13.3233C1.60552 13.462 1.79374 13.54 1.99 13.54C2.18626 13.54 2.37448 13.462 2.51326 13.3233C2.65204 13.1845 2.73 12.9963 2.73 12.8V8C2.78169 6.67093 3.33215 5.41011 4.27173 4.46868C5.2113 3.52725 6.47104 2.97431 7.8 2.92H13.37V6.92C13.37 7.98087 13.7914 8.99828 14.5416 9.74843C15.2917 10.4986 16.3091 10.92 17.37 10.92H21.28V16.21C21.2853 16.8443 21.1656 17.4734 20.9277 18.0614C20.6898 18.6495 20.3385 19.1849 19.8937 19.6371C19.4489 20.0893 18.9193 20.4495 18.3353 20.6971C17.7513 20.9446 17.1243 21.0748 16.49 21.08H10C9.80109 21.08 9.61032 21.159 9.46967 21.2997C9.32902 21.4403 9.25 21.6311 9.25 21.83C9.25 22.0289 9.32902 22.2197 9.46967 22.3603C9.61032 22.501 9.80109 22.58 10 22.58H16.44C18.1154 22.5642 19.7161 21.8848 20.8914 20.6907C22.0667 19.4967 22.7207 17.8854 22.71 16.21L22.72 10.49ZM17.34 9.42C16.6751 9.41209 16.0403 9.14173 15.5739 8.66783C15.1075 8.19393 14.8473 7.55491 14.85 6.89V4L20.2 9.42H17.34ZM7.34 18.7C7.34002 18.8945 7.26343 19.0813 7.12681 19.2198C6.99018 19.3582 6.80452 19.4374 6.61 19.44H5.38V20.65C5.38002 20.8472 5.30237 21.0365 5.16388 21.1768C5.02538 21.3172 4.83717 21.3974 4.64 21.4V21.4C4.54282 21.3987 4.44685 21.3783 4.35756 21.3399C4.26828 21.3015 4.18744 21.2459 4.11965 21.1762C4.05186 21.1066 3.99846 21.0242 3.96248 20.934C3.92651 20.8437 3.90868 20.7472 3.91 20.65V19.41H2.7C2.60323 19.4062 2.50818 19.3831 2.4204 19.3422C2.33262 19.3013 2.25386 19.2433 2.18872 19.1716C2.12357 19.1 2.07333 19.016 2.04093 18.9248C2.00853 18.8335 1.99462 18.7367 2 18.64C2.00506 18.4453 2.08465 18.26 2.22234 18.1223C2.36004 17.9846 2.54533 17.9051 2.74 17.9H3.94V16.7C3.94983 16.5158 4.02808 16.342 4.15941 16.2125C4.29075 16.083 4.46571 16.0072 4.65 16C4.74718 16.0013 4.84315 16.0217 4.93244 16.0601C5.02172 16.0985 5.10256 16.1541 5.17035 16.2238C5.23814 16.2934 5.29154 16.3758 5.32752 16.466C5.36349 16.5563 5.38132 16.6528 5.38 16.75V17.97H6.59C6.78201 17.9751 6.96477 18.0536 7.10059 18.1894C7.23641 18.3252 7.31494 18.508 7.32 18.7H7.34Z" fill="black"/>
</svg>
