<svg width="24" height="24" viewBox="0 0 24 24" fill="none" xmlns="http://www.w3.org/2000/svg">
<path d="M11.2 8.54L10.49 7.82C10.3037 7.63264 10.1992 7.37919 10.1992 7.115C10.1992 6.85081 10.3037 6.59736 10.49 6.41L13.42 3.47C13.9144 2.97031 14.5086 2.58048 15.1638 2.32595C15.8191 2.07142 16.5206 1.95791 17.2227 1.99283C17.9247 2.02774 18.6115 2.2103 19.2383 2.52858C19.865 2.84686 20.4176 3.29372 20.86 3.84C21.6435 4.84558 22.0279 6.1052 21.9393 7.37691C21.8507 8.64863 21.2954 9.84277 20.38 10.73L17.59 13.51C17.4026 13.6963 17.1492 13.8008 16.885 13.8008C16.6208 13.8008 16.3674 13.6963 16.18 13.51L15.46 12.8C15.3663 12.707 15.2919 12.5964 15.2411 12.4746C15.1903 12.3527 15.1642 12.222 15.1642 12.09C15.1642 11.958 15.1903 11.8273 15.2411 11.7054C15.2919 11.5836 15.3663 11.473 15.46 11.38L18.4 8.45C18.61 8.24388 18.7719 7.99395 18.8743 7.71805C18.9766 7.44215 19.0168 7.14707 18.9919 6.85386C18.9671 6.56065 18.8779 6.27653 18.7306 6.02176C18.5833 5.767 18.3817 5.54787 18.14 5.38C17.7294 5.112 17.2383 4.99535 16.7511 5.0501C16.2638 5.10484 15.8109 5.32756 15.47 5.68L12.62 8.54C12.527 8.63373 12.4164 8.70812 12.2946 8.75889C12.1727 8.80966 12.042 8.8358 11.91 8.8358C11.778 8.8358 11.6473 8.80966 11.5254 8.75889C11.4036 8.70812 11.293 8.63373 11.2 8.54ZM11.2 15.6L8.53 18.32C8.18913 18.6724 7.73616 18.8952 7.24892 18.9499C6.76168 19.0047 6.27058 18.888 5.86 18.62C5.61832 18.4521 5.41665 18.233 5.26939 17.9782C5.12213 17.7235 5.03291 17.4394 5.00807 17.1461C4.98324 16.8529 5.02342 16.5578 5.12573 16.2819C5.22805 16.006 5.38999 15.7561 5.6 15.55L8.4 12.76C8.49373 12.667 8.56812 12.5564 8.61889 12.4346C8.66966 12.3127 8.6958 12.182 8.6958 12.05C8.6958 11.918 8.66966 11.7873 8.61889 11.6654C8.56812 11.5436 8.49373 11.433 8.4 11.34L7.68 10.62C7.49264 10.4337 7.23919 10.3292 6.975 10.3292C6.71081 10.3292 6.45736 10.4337 6.27 10.62L3.62 13.27C2.70461 14.1572 2.1493 15.3514 2.0607 16.6231C1.9721 17.8948 2.35648 19.1544 3.14 20.16C3.58238 20.7063 4.13497 21.1531 4.76171 21.4714C5.38846 21.7897 6.07527 21.9723 6.77734 22.0072C7.4794 22.0421 8.18094 21.9286 8.83617 21.674C9.49141 21.4195 10.0856 21.0297 10.58 20.53L13.38 17.73C13.5663 17.5426 13.6708 17.2892 13.6708 17.025C13.6708 16.7608 13.5663 16.5074 13.38 16.32L12.66 15.6C12.567 15.5063 12.4564 15.4319 12.3346 15.3811C12.2127 15.3303 12.082 15.3042 11.95 15.3042C11.818 15.3042 11.6873 15.3303 11.5654 15.3811C11.4436 15.4319 11.333 15.5063 11.24 15.6H11.2Z" fill="black"/>
<path opacity="0.3" d="M5.35 8.28H5.12L3 7.59C2.81198 7.528 2.65558 7.39509 2.56406 7.21953C2.47255 7.04398 2.45315 6.83964 2.51 6.65C2.53843 6.55538 2.58552 6.46741 2.64849 6.39128C2.71146 6.31515 2.78903 6.2524 2.87665 6.20673C2.96426 6.16106 3.06012 6.1334 3.1586 6.12537C3.25707 6.11734 3.35615 6.12912 3.45 6.16L5.55 6.82C5.71732 6.87688 5.85918 6.99102 5.95055 7.14229C6.04193 7.29355 6.07696 7.47223 6.04946 7.6468C6.02196 7.82137 5.93369 7.98062 5.80024 8.09647C5.66678 8.21231 5.4967 8.27731 5.32 8.28H5.35Z" fill="black"/>
<path opacity="0.3" d="M8.45 5.31C8.27104 5.30753 8.09869 5.24199 7.96332 5.12491C7.82795 5.00783 7.73824 4.84673 7.71 4.67L7.51 3.23C7.4795 3.03241 7.52874 2.8308 7.64689 2.66952C7.76504 2.50824 7.94241 2.4005 8.14 2.37C8.33759 2.3395 8.5392 2.38874 8.70048 2.50689C8.86176 2.62504 8.9695 2.80241 9 3L9.2 4.43C9.21405 4.52731 9.20858 4.62644 9.18389 4.7216C9.15921 4.81677 9.1158 4.90606 9.05622 4.98426C8.99664 5.06247 8.92207 5.12801 8.83687 5.17707C8.75167 5.22613 8.65755 5.25772 8.56 5.27L8.45 5.31Z" fill="black"/>
<path opacity="0.3" d="M16.25 20.74C16.0789 20.7412 15.9126 20.6831 15.7795 20.5755C15.6464 20.468 15.5547 20.3176 15.52 20.15L15.08 18C15.0595 17.9035 15.0582 17.8038 15.0763 17.7068C15.0944 17.6098 15.1314 17.5173 15.1853 17.4346C15.2392 17.3519 15.3088 17.2807 15.3903 17.225C15.4717 17.1693 15.5634 17.1302 15.66 17.11C15.8544 17.0739 16.0553 17.114 16.221 17.2219C16.3867 17.3299 16.5045 17.4975 16.55 17.69L17 19.84C17.0387 20.0347 16.9997 20.2368 16.8913 20.4032C16.7829 20.5695 16.6138 20.6868 16.42 20.73L16.25 20.74Z" fill="black"/>
<path opacity="0.3" d="M20.19 16.5C20.1304 16.5099 20.0696 16.5099 20.01 16.5L18.61 16.15C18.5144 16.1277 18.4242 16.0866 18.3446 16.0292C18.265 15.9717 18.1977 15.8989 18.1465 15.8152C18.0953 15.7314 18.0613 15.6383 18.0465 15.5413C18.0316 15.4443 18.0362 15.3452 18.06 15.25C18.0834 15.154 18.1256 15.0636 18.184 14.9839C18.2425 14.9043 18.3161 14.837 18.4007 14.7859C18.4853 14.7348 18.5791 14.7009 18.6768 14.6861C18.7745 14.6714 18.8741 14.6761 18.97 14.7L20.37 15.04C20.5497 15.0823 20.7075 15.1894 20.8132 15.3408C20.9188 15.4922 20.9649 15.6773 20.9427 15.8606C20.9204 16.0439 20.8312 16.2125 20.6924 16.3342C20.5535 16.4558 20.3746 16.522 20.19 16.52V16.5Z" fill="black"/>
</svg>
