<svg width="25" height="24" viewBox="0 0 25 24" fill="none" xmlns="http://www.w3.org/2000/svg">
<path d="M12 8.54001L11.29 7.82001C11.1037 7.63265 10.9992 7.3792 10.9992 7.11501C10.9992 6.85082 11.1037 6.59737 11.29 6.41001L14.22 3.47001C14.7144 2.97032 15.3086 2.58049 15.9638 2.32596C16.619 2.07143 17.3206 1.95792 18.0226 1.99284C18.7247 2.02775 19.4115 2.21031 20.0383 2.52859C20.665 2.84687 21.2176 3.29373 21.66 3.84001C22.4435 4.84559 22.8279 6.10521 22.7393 7.37692C22.6507 8.64863 22.0954 9.84278 21.18 10.73L18.39 13.51C18.2026 13.6963 17.9492 13.8008 17.685 13.8008C17.4208 13.8008 17.1673 13.6963 16.98 13.51L16.26 12.8C16.1663 12.707 16.0919 12.5964 16.0411 12.4746C15.9903 12.3527 15.9642 12.222 15.9642 12.09C15.9642 11.958 15.9903 11.8273 16.0411 11.7054C16.0919 11.5836 16.1663 11.473 16.26 11.38L19.2 8.45001C19.41 8.24389 19.5719 7.99396 19.6742 7.71806C19.7766 7.44216 19.8167 7.14708 19.7919 6.85387C19.7671 6.56066 19.6778 6.27654 19.5306 6.02177C19.3833 5.76701 19.1817 5.54788 18.94 5.38001C18.5294 5.11201 18.0383 4.99536 17.5511 5.05011C17.0638 5.10485 16.6109 5.32757 16.27 5.68001L13.42 8.54001C13.327 8.63374 13.2164 8.70813 13.0946 8.7589C12.9727 8.80967 12.842 8.83581 12.71 8.83581C12.578 8.83581 12.4473 8.80967 12.3254 8.7589C12.2035 8.70813 12.0929 8.63374 12 8.54001ZM12 15.6L9.32998 18.32C8.98911 18.6724 8.53615 18.8952 8.0489 18.9499C7.56166 19.0047 7.07056 18.888 6.65998 18.62C6.4183 18.4521 6.21664 18.233 6.06938 17.9782C5.92212 17.7235 5.83289 17.4394 5.80806 17.1462C5.78322 16.8529 5.8234 16.5579 5.92572 16.282C6.02803 16.0061 6.18997 15.7561 6.39998 15.55L9.19998 12.76C9.29371 12.667 9.36811 12.5564 9.41887 12.4346C9.46964 12.3127 9.49578 12.182 9.49578 12.05C9.49578 11.918 9.46964 11.7873 9.41887 11.6654C9.36811 11.5436 9.29371 11.433 9.19998 11.34L8.47998 10.62C8.29262 10.4338 8.03917 10.3292 7.77498 10.3292C7.5108 10.3292 7.25735 10.4338 7.06998 10.62L4.41998 13.27C3.5046 14.1572 2.94928 15.3514 2.86068 16.6231C2.77209 17.8948 3.15646 19.1544 3.93998 20.16C4.38236 20.7063 4.93495 21.1531 5.5617 21.4714C6.18844 21.7897 6.87526 21.9723 7.57732 22.0072C8.27939 22.0421 8.98092 21.9286 9.63616 21.6741C10.2914 21.4195 10.8856 21.0297 11.38 20.53L14.18 17.73C14.3662 17.5426 14.4708 17.2892 14.4708 17.025C14.4708 16.7608 14.3662 16.5074 14.18 16.32L13.46 15.6C13.367 15.5063 13.2564 15.4319 13.1346 15.3811C13.0127 15.3303 12.882 15.3042 12.75 15.3042C12.618 15.3042 12.4873 15.3303 12.3654 15.3811C12.2435 15.4319 12.1329 15.5063 12.04 15.6H12Z" fill="#3E97FF"/>
<path d="M6.14999 8.28H5.91999L3.79999 7.59C3.61197 7.528 3.45557 7.39509 3.36405 7.21953C3.27254 7.04398 3.25314 6.83964 3.30999 6.65C3.33842 6.55538 3.38551 6.46741 3.44848 6.39128C3.51145 6.31515 3.58902 6.2524 3.67664 6.20673C3.76425 6.16106 3.86011 6.1334 3.95859 6.12537C4.05706 6.11734 4.15614 6.12912 4.24999 6.16L6.34999 6.82C6.51731 6.87688 6.65917 6.99102 6.75054 7.14229C6.84192 7.29355 6.87695 7.47223 6.84945 7.6468C6.82195 7.82137 6.73368 7.98062 6.60023 8.09647C6.46677 8.21231 6.29669 8.27731 6.11999 8.28H6.14999Z" fill="#D8D8E5"/>
<path d="M9.24997 5.31C9.07101 5.30753 8.89867 5.24199 8.7633 5.12491C8.62793 5.00783 8.53822 4.84674 8.50997 4.67L8.30997 3.23C8.27947 3.03242 8.32871 2.83081 8.44686 2.66952C8.56501 2.50824 8.74239 2.4005 8.93997 2.37C9.13756 2.3395 9.33917 2.38874 9.50045 2.50689C9.66173 2.62504 9.76947 2.80242 9.79997 3L9.99997 4.43C10.014 4.52731 10.0086 4.62644 9.98387 4.7216C9.95918 4.81677 9.91578 4.90606 9.85619 4.98427C9.79661 5.06247 9.72204 5.12801 9.63684 5.17708C9.55164 5.22614 9.45752 5.25773 9.35997 5.27L9.24997 5.31Z" fill="#D8D8E5"/>
<path d="M17.05 20.74C16.8788 20.7412 16.7126 20.6831 16.5795 20.5755C16.4464 20.468 16.3547 20.3176 16.32 20.15L15.88 18C15.8595 17.9035 15.8582 17.8038 15.8763 17.7068C15.8943 17.6098 15.9314 17.5173 15.9852 17.4346C16.0391 17.3519 16.1088 17.2807 16.1903 17.225C16.2717 17.1693 16.3634 17.1302 16.46 17.11C16.6544 17.0739 16.8553 17.114 17.021 17.2219C17.1867 17.3299 17.3045 17.4975 17.35 17.69L17.8 19.84C17.8387 20.0347 17.7997 20.2368 17.6913 20.4032C17.5829 20.5695 17.4137 20.6868 17.22 20.73L17.05 20.74Z" fill="#D8D8E5"/>
<path d="M20.99 16.5C20.9304 16.5099 20.8696 16.5099 20.81 16.5L19.41 16.15C19.3144 16.1277 19.2242 16.0866 19.1446 16.0292C19.065 15.9717 18.9977 15.8989 18.9465 15.8152C18.8953 15.7314 18.8613 15.6383 18.8464 15.5413C18.8316 15.4442 18.8362 15.3452 18.86 15.25C18.8834 15.154 18.9255 15.0636 18.984 14.9839C19.0425 14.9043 19.1161 14.837 19.2007 14.7859C19.2852 14.7348 19.3791 14.7009 19.4768 14.6861C19.5745 14.6714 19.6741 14.6761 19.77 14.7L21.17 15.04C21.3497 15.0823 21.5075 15.1894 21.6132 15.3408C21.7188 15.4922 21.7649 15.6773 21.7426 15.8606C21.7203 16.0439 21.6312 16.2125 21.4923 16.3342C21.3535 16.4558 21.1746 16.522 20.99 16.52V16.5Z" fill="#D8D8E5"/>
</svg>
