<svg width="24" height="24" viewBox="0 0 24 24" fill="none" xmlns="http://www.w3.org/2000/svg">
<path d="M11.89 17.24C11.7584 17.2408 11.6279 17.2155 11.5061 17.1658C11.3843 17.116 11.2734 17.0427 11.18 16.95L5.18 10.95C5.08627 10.857 5.01188 10.7464 4.96111 10.6246C4.91034 10.5027 4.8842 10.372 4.8842 10.24C4.8842 10.108 4.91034 9.97728 4.96111 9.85542C5.01188 9.73356 5.08627 9.62296 5.18 9.53C5.36736 9.34375 5.62081 9.23921 5.885 9.23921C6.14919 9.23921 6.40264 9.34375 6.59 9.53L11.89 14.83L17.18 9.53C17.3674 9.34375 17.6208 9.23921 17.885 9.23921C18.1492 9.23921 18.4026 9.34375 18.59 9.53C18.6837 9.62296 18.7581 9.73356 18.8089 9.85542C18.8597 9.97728 18.8858 10.108 18.8858 10.24C18.8858 10.372 18.8597 10.5027 18.8089 10.6246C18.7581 10.7464 18.6837 10.857 18.59 10.95L12.59 16.95C12.4037 17.1347 12.1523 17.2389 11.89 17.24Z" fill="black"/>
</svg>
