<svg width="16" height="16" viewBox="0 0 16 16" fill="none" xmlns="http://www.w3.org/2000/svg">
<path d="M7.92667 11.4933C7.83893 11.4939 7.75195 11.477 7.67073 11.4439C7.5895 11.4107 7.51563 11.3618 7.45333 11.3L3.45333 7.30001C3.39085 7.23804 3.34125 7.1643 3.30741 7.08306C3.27356 7.00182 3.25613 6.91469 3.25613 6.82668C3.25613 6.73867 3.27356 6.65153 3.30741 6.5703C3.34125 6.48906 3.39085 6.41532 3.45333 6.35335C3.57824 6.22918 3.74721 6.15948 3.92333 6.15948C4.09946 6.15948 4.26842 6.22918 4.39333 6.35335L7.92667 9.88668L11.4533 6.35335C11.5782 6.22918 11.7472 6.15948 11.9233 6.15948C12.0995 6.15948 12.2684 6.22918 12.3933 6.35335C12.4558 6.41532 12.5054 6.48906 12.5393 6.5703C12.5731 6.65153 12.5905 6.73867 12.5905 6.82668C12.5905 6.91469 12.5731 7.00182 12.5393 7.08306C12.5054 7.1643 12.4558 7.23804 12.3933 7.30001L8.39333 11.3C8.26916 11.4232 8.10156 11.4926 7.92667 11.4933Z" fill="#A1A5B7"/>
</svg>
