<svg width="20" height="20" viewBox="0 0 20 20" fill="none" xmlns="http://www.w3.org/2000/svg">
<path d="M9.90836 14.3667C9.79868 14.3673 9.68996 14.3463 9.58843 14.3048C9.4869 14.2633 9.39456 14.2022 9.31669 14.125L4.31669 9.125C4.23858 9.04753 4.17659 8.95536 4.13428 8.85382C4.09197 8.75227 4.07019 8.64334 4.07019 8.53333C4.07019 8.42332 4.09197 8.3144 4.13428 8.21285C4.17659 8.1113 4.23858 8.01914 4.31669 7.94167C4.47282 7.78646 4.68403 7.69934 4.90419 7.69934C5.12434 7.69934 5.33555 7.78646 5.49169 7.94167L9.90836 12.3583L14.3167 7.94167C14.4728 7.78646 14.684 7.69934 14.9042 7.69934C15.1243 7.69934 15.3356 7.78646 15.4917 7.94167C15.5698 8.01914 15.6318 8.1113 15.6741 8.21285C15.7164 8.3144 15.7382 8.42332 15.7382 8.53333C15.7382 8.64334 15.7164 8.75227 15.6741 8.85382C15.6318 8.95536 15.5698 9.04753 15.4917 9.125L10.4917 14.125C10.3365 14.279 10.127 14.3657 9.90836 14.3667Z" fill="#A1A5B7"/>
</svg>
