<svg width="24" height="24" viewBox="0 0 24 24" fill="none" xmlns="http://www.w3.org/2000/svg">
<path opacity="0.3" d="M6 8.55C4.94956 8.59681 3.95979 9.05536 3.24488 9.82642C2.52997 10.5975 2.14741 11.619 2.18 12.67V17C2.13662 18.0578 2.51434 19.0896 3.23038 19.8694C3.94642 20.6491 4.94238 21.1132 6 21.16H18C19.0594 21.1158 20.0579 20.6528 20.7761 19.8728C21.4943 19.0927 21.8733 18.0594 21.83 17V12.67C21.8625 11.6174 21.4786 10.5944 20.7616 9.82303C20.0445 9.05169 19.0522 8.59426 18 8.55H6Z" fill="black"/>
<path d="M11.25 15.31V5.4L9.61 7.05C9.46937 7.19045 9.27875 7.26934 9.08 7.26934C8.88125 7.26934 8.69063 7.19045 8.55 7.05C8.48076 6.98122 8.42581 6.89943 8.38831 6.80932C8.35082 6.71922 8.33151 6.62259 8.33151 6.525C8.33151 6.42741 8.35082 6.33078 8.38831 6.24068C8.42581 6.15057 8.48076 6.06878 8.55 6L11.47 3.07C11.6106 2.92955 11.8012 2.85066 12 2.85066C12.1988 2.85066 12.3894 2.92955 12.53 3.07L15.45 6C15.5206 6.0689 15.5764 6.15138 15.6143 6.24248C15.6521 6.33357 15.671 6.43138 15.67 6.53C15.6705 6.62854 15.6512 6.72618 15.6135 6.81719C15.5757 6.90821 15.5201 6.99076 15.45 7.06C15.3094 7.20045 15.1188 7.27934 14.92 7.27934C14.7212 7.27934 14.5306 7.20045 14.39 7.06L12.75 5.4V15.31C12.75 15.5089 12.671 15.6997 12.5303 15.8403C12.3897 15.981 12.1989 16.06 12 16.06C11.8011 16.06 11.6103 15.981 11.4697 15.8403C11.329 15.6997 11.25 15.5089 11.25 15.31Z" fill="black"/>
</svg>
