<svg width="20" height="20" viewBox="0 0 20 20" fill="none" xmlns="http://www.w3.org/2000/svg">
<path opacity="0.3" d="M4.99998 7.125C4.12461 7.16401 3.2998 7.54613 2.70404 8.18868C2.10828 8.83123 1.78949 9.68252 1.81665 10.5583V14.1667C1.7805 15.0481 2.09526 15.908 2.69196 16.5578C3.28866 17.2076 4.11862 17.5944 4.99998 17.6333H15C15.8828 17.5965 16.7149 17.2107 17.3134 16.5606C17.9119 15.9106 18.2278 15.0495 18.1916 14.1667V10.5583C18.2187 9.68113 17.8988 8.82863 17.3013 8.18585C16.7037 7.54307 15.8768 7.16188 15 7.125H4.99998Z" fill="#3E97FF"/>
<path d="M9.37501 12.7583V4.5L8.00834 5.875C7.89115 5.99204 7.7323 6.05778 7.56667 6.05778C7.40105 6.05778 7.24219 5.99204 7.12501 5.875C7.06731 5.81768 7.02151 5.74952 6.99027 5.67444C6.95902 5.59935 6.94293 5.51883 6.94293 5.4375C6.94293 5.35617 6.95902 5.27565 6.99027 5.20056C7.02151 5.12548 7.06731 5.05731 7.12501 5L9.55834 2.55833C9.67553 2.44129 9.83438 2.37555 10 2.37555C10.1656 2.37555 10.3245 2.44129 10.4417 2.55833L12.875 5C12.9338 5.05742 12.9804 5.12615 13.0119 5.20206C13.0434 5.27797 13.0592 5.35948 13.0583 5.44167C13.0587 5.52378 13.0427 5.60515 13.0112 5.68099C12.9797 5.75684 12.9334 5.82563 12.875 5.88333C12.7578 6.00037 12.599 6.06612 12.4333 6.06612C12.2677 6.06612 12.1089 6.00037 11.9917 5.88333L10.625 4.5V12.7583C10.625 12.9241 10.5592 13.0831 10.4419 13.2003C10.3247 13.3175 10.1658 13.3833 10 13.3833C9.83424 13.3833 9.67527 13.3175 9.55806 13.2003C9.44085 13.0831 9.37501 12.9241 9.37501 12.7583Z" fill="#3E97FF"/>
</svg>
