<svg width="22" height="31" viewBox="0 0 22 31" fill="none" xmlns="http://www.w3.org/2000/svg">
<path d="M18.9383 22.0166C18.1813 20.878 17.794 19.5335 17.8291 18.1666V18.0291C17.827 16.5877 17.2892 15.1985 16.3202 14.1313C15.3513 13.0641 14.0203 12.3951 12.5858 12.2541V11.1816C12.5858 10.9993 12.5134 10.8244 12.3844 10.6955C12.2555 10.5666 12.0806 10.4941 11.8983 10.4941C11.716 10.4941 11.5411 10.5666 11.4122 10.6955C11.2832 10.8244 11.2108 10.9993 11.2108 11.1816V12.2908C10.6985 12.3503 10.1961 12.4766 9.71665 12.6666C8.66502 13.1052 7.77006 13.8506 7.14864 14.8056C6.52723 15.7606 6.20823 16.8809 6.23331 18.02C6.24457 19.4709 5.78457 20.8862 4.92248 22.0533L4.30831 22.8966C4.01721 23.2869 3.84053 23.7505 3.79807 24.2355C3.75562 24.7206 3.84907 25.2078 4.06795 25.6427C4.28683 26.0776 4.62249 26.443 5.03732 26.6979C5.45216 26.9528 5.92977 27.0871 6.41665 27.0858H9.42331V27.3883C9.50453 27.981 9.79765 28.5242 10.2484 28.9174C10.6992 29.3106 11.2772 29.5273 11.8754 29.5273C12.4736 29.5273 13.0516 29.3106 13.5024 28.9174C13.9531 28.5242 14.2463 27.981 14.3275 27.3883V27.0858H17.4166C17.895 27.0792 18.3627 26.944 18.7709 26.6945C19.179 26.445 19.5125 26.0903 19.7365 25.6676C19.9605 25.2449 20.0667 24.7698 20.044 24.292C20.0213 23.8141 19.8705 23.3512 19.6075 22.9516L18.9383 22.0166ZM12.98 27.2325C12.9284 27.4824 12.7921 27.7069 12.5943 27.8681C12.3964 28.0293 12.149 28.1173 11.8937 28.1173C11.6385 28.1173 11.3911 28.0293 11.1932 27.8681C10.9953 27.7069 10.8591 27.4824 10.8075 27.2325V27.0858H12.98V27.2325ZM17.4166 25.7108H6.41665C6.18497 25.71 5.95803 25.6451 5.76095 25.5233C5.56387 25.4015 5.40431 25.2276 5.29994 25.0207C5.19558 24.8139 5.15046 24.5822 5.16958 24.3513C5.18871 24.1204 5.27133 23.8993 5.40831 23.7125L6.03165 22.8691C7.07674 21.446 7.63018 19.7213 7.60831 17.9558C7.59632 17.1052 7.83857 16.2704 8.30401 15.5584C8.76945 14.8463 9.43689 14.2895 10.2208 13.9591C10.804 13.7268 11.4264 13.6085 12.0541 13.6108C12.6362 13.606 13.2135 13.7164 13.7527 13.9359C14.2919 14.1553 14.7823 14.4793 15.1956 14.8892C15.6089 15.2991 15.937 15.7868 16.1609 16.3241C16.3847 16.8615 16.5 17.4379 16.5 18.02V18.1666C16.4756 19.7942 16.942 21.3913 17.8383 22.75L18.4616 23.6666C18.6059 23.8869 18.6795 24.1459 18.6725 24.4091C18.6786 24.5779 18.6507 24.7461 18.5904 24.9038C18.53 25.0615 18.4385 25.2054 18.3213 25.3269C18.204 25.4484 18.0635 25.5451 17.9081 25.611C17.7526 25.677 17.5855 25.7109 17.4166 25.7108V25.7108Z" fill="#5E6278"/>
</svg>
