<svg width="24" height="24" viewBox="0 0 24 24" fill="none" xmlns="http://www.w3.org/2000/svg">
<path d="M15.84 2.67C16.5702 2.67654 17.2919 2.82683 17.9639 3.1123C18.636 3.39778 19.2453 3.81283 19.7569 4.33378C20.2686 4.85472 20.6726 5.47134 20.946 6.14844C21.2193 6.82554 21.3566 7.54984 21.35 8.28V15.72C21.3566 16.4502 21.2193 17.1745 20.946 17.8516C20.6726 18.5287 20.2686 19.1453 19.7569 19.6662C19.2453 20.1872 18.636 20.6022 17.9639 20.8877C17.2919 21.1732 16.5702 21.3235 15.84 21.33H8.16C7.42984 21.3235 6.70812 21.1732 6.03605 20.8877C5.36398 20.6022 4.75472 20.1872 4.24306 19.6662C3.73141 19.1453 3.32737 18.5287 3.05404 17.8516C2.7807 17.1745 2.6434 16.4502 2.65 15.72V8.28C2.6434 7.54984 2.7807 6.82554 3.05404 6.14844C3.32737 5.47134 3.73141 4.85472 4.24306 4.33378C4.75472 3.81283 5.36398 3.39778 6.03605 3.1123C6.70812 2.82683 7.42984 2.67654 8.16 2.67H15.84ZM14.6 6.79H15.3C13.4741 8.96822 10.8759 10.3551 8.05 10.66C7.8617 10.66 7.6811 10.7348 7.54795 10.868C7.4148 11.0011 7.34 11.1817 7.34 11.37C7.34 11.5583 7.4148 11.7389 7.54795 11.872C7.6811 12.0052 7.8617 12.08 8.05 12.08V12.08C11.1324 11.7886 13.9904 10.3417 16.05 8.03V8.29C16.05 8.47565 16.1238 8.6537 16.255 8.78498C16.3863 8.91625 16.5643 8.99 16.75 8.99C16.9357 8.99 17.1137 8.91625 17.245 8.78498C17.3762 8.6537 17.45 8.47565 17.45 8.29V6.08C17.45 6.08 17.45 6.08 17.45 6.02V5.88C17.4377 5.83833 17.4209 5.79811 17.4 5.76C17.3827 5.71983 17.3591 5.6827 17.33 5.65L17.24 5.54H17.17C17.1306 5.47786 17.0703 5.43178 17 5.41C16.9539 5.39967 16.9061 5.39967 16.86 5.41H16.79H14.6C14.4249 5.43074 14.2636 5.51498 14.1465 5.64677C14.0294 5.77855 13.9647 5.94871 13.9647 6.125C13.9647 6.30129 14.0294 6.47145 14.1465 6.60323C14.2636 6.73502 14.4249 6.81926 14.6 6.84M16.78 18.9C16.8728 18.9 16.9646 18.8816 17.0502 18.8458C17.1358 18.81 17.2134 18.7575 17.2785 18.6915C17.3437 18.6254 17.395 18.547 17.4296 18.461C17.4642 18.3749 17.4813 18.2828 17.48 18.19V11.78C17.48 11.6881 17.4619 11.597 17.4267 11.5121C17.3915 11.4272 17.34 11.35 17.275 11.285C17.21 11.22 17.1328 11.1685 17.0479 11.1333C16.963 11.0981 16.8719 11.08 16.78 11.08C16.6881 11.08 16.597 11.0981 16.5121 11.1333C16.4272 11.1685 16.35 11.22 16.285 11.285C16.22 11.35 16.1685 11.4272 16.1333 11.5121C16.0981 11.597 16.08 11.6881 16.08 11.78V18.14C16.0787 18.2328 16.0958 18.3249 16.1304 18.4109C16.165 18.497 16.2163 18.5754 16.2815 18.6415C16.3466 18.7075 16.4242 18.76 16.5098 18.7958C16.5954 18.8316 16.6872 18.85 16.78 18.85M12.34 18.85C12.4328 18.85 12.5246 18.8316 12.6102 18.7958C12.6958 18.76 12.7734 18.7075 12.8385 18.6415C12.9037 18.5754 12.955 18.497 12.9896 18.4109C13.0242 18.3249 13.0413 18.2328 13.04 18.14V14.28C13.04 14.0943 12.9662 13.9163 12.835 13.785C12.7037 13.6538 12.5257 13.58 12.34 13.58C12.1543 13.58 11.9763 13.6538 11.845 13.785C11.7137 13.9163 11.64 14.0943 11.64 14.28V18.14C11.6387 18.2328 11.6558 18.3249 11.6904 18.4109C11.725 18.497 11.7763 18.5754 11.8415 18.6415C11.9066 18.7075 11.9842 18.76 12.0698 18.7958C12.1554 18.8316 12.2472 18.85 12.34 18.85M7.84 18.85C7.93277 18.85 8.02462 18.8316 8.11021 18.7958C8.19579 18.76 8.27341 18.7075 8.33854 18.6415C8.40368 18.5754 8.45503 18.497 8.48961 18.4109C8.5242 18.3249 8.54133 18.2328 8.54 18.14V15.47C8.55181 15.3717 8.54264 15.2721 8.51311 15.1776C8.48358 15.0831 8.43435 14.996 8.36867 14.922C8.30299 14.8479 8.22236 14.7887 8.13209 14.7481C8.04182 14.7075 7.94397 14.6865 7.845 14.6865C7.74603 14.6865 7.64818 14.7075 7.55791 14.7481C7.46764 14.7887 7.38701 14.8479 7.32133 14.922C7.25565 14.996 7.20642 15.0831 7.17689 15.1776C7.14736 15.2721 7.13819 15.3717 7.15 15.47V18.14C7.14868 18.2319 7.16548 18.3232 7.19944 18.4087C7.2334 18.4941 7.28386 18.572 7.34793 18.6379C7.41201 18.7039 7.48844 18.7565 7.57287 18.7929C7.6573 18.8293 7.74807 18.8487 7.84 18.85M15.84 1.25H8.16C6.31913 1.27367 4.56168 2.0216 3.26833 3.3318C1.97498 4.642 1.24985 6.40897 1.25 8.25V15.69C1.24985 17.531 1.97498 19.298 3.26833 20.6082C4.56168 21.9184 6.31913 22.6663 8.16 22.69H15.84C17.6809 22.6663 19.4383 21.9184 20.7317 20.6082C22.025 19.298 22.7502 17.531 22.75 15.69V8.28C22.7502 6.43897 22.025 4.672 20.7317 3.3618C19.4383 2.0516 17.6809 1.30367 15.84 1.28V1.25Z" fill="black"/>
</svg>
