<svg width="24" height="24" viewBox="0 0 24 24" fill="none" xmlns="http://www.w3.org/2000/svg">
<path d="M18 22.74H6C5.37381 22.7466 4.75254 22.6288 4.17223 22.3935C3.59192 22.1581 3.06412 21.8098 2.61946 21.3689C2.17479 20.928 1.82211 20.4031 1.58188 19.8248C1.34165 19.2465 1.21864 18.6262 1.22 18V12.34C1.23305 11.2908 1.46996 10.2566 1.91489 9.30635C2.35982 8.35612 3.00252 7.51185 3.8 6.83L8.91 2.42C9.78288 1.66294 10.8996 1.24615 12.055 1.24615C13.2104 1.24615 14.3271 1.66294 15.2 2.42L20.27 6.9C21.0603 7.59234 21.6931 8.44585 22.1261 9.40315C22.559 10.3605 22.782 11.3994 22.78 12.45V18.07C22.7761 18.6876 22.6494 19.2983 22.4073 19.8666C22.1653 20.4348 21.8127 20.9493 21.37 21.38C20.9254 21.8172 20.3988 22.1624 19.8205 22.3958C19.2422 22.6292 18.6236 22.7461 18 22.74ZM15 21.24H18C18.856 21.2437 19.6789 20.9095 20.29 20.31C20.6011 20.0228 20.8502 19.6751 21.0221 19.2882C21.1941 18.9013 21.2852 18.4834 21.29 18.06V12.44C21.2927 11.6044 21.1155 10.7781 20.7704 10.0171C20.4253 9.25616 19.9204 8.57842 19.29 8.03L14.21 3.57C13.6093 3.05264 12.8428 2.76809 12.05 2.76809C11.2572 2.76809 10.4907 3.05264 9.89 3.57L4.78 8C4.1519 8.54816 3.64843 9.22445 3.30346 9.98339C2.95849 10.7423 2.78 11.5663 2.78 12.4V18.06C2.79313 18.9053 3.13816 19.7115 3.74061 20.3046C4.34306 20.8977 5.1546 21.2301 6 21.23H15V21.24ZM16.72 18.4C16.72 18.2011 16.641 18.0103 16.5003 17.8697C16.3597 17.729 16.1689 17.65 15.97 17.65H8C7.80109 17.65 7.61032 17.729 7.46967 17.8697C7.32902 18.0103 7.25 18.2011 7.25 18.4C7.25 18.5989 7.32902 18.7897 7.46967 18.9303C7.61032 19.071 7.80109 19.15 8 19.15H16C16.1895 19.1402 16.3684 19.0598 16.5016 18.9247C16.6349 18.7896 16.7128 18.6096 16.72 18.42V18.4Z" fill="black"/>
</svg>
