<svg width="18" height="18" viewBox="0 0 18 18" fill="none" xmlns="http://www.w3.org/2000/svg">
<g clip-path="url(#clip0_1_2006)">
<path d="M13.5 17.055H4.49999C4.03034 17.06 3.56439 16.9716 3.12916 16.7951C2.69392 16.6186 2.29808 16.3574 1.96458 16.0267C1.63108 15.696 1.36657 15.3023 1.1864 14.8686C1.00622 14.4349 0.913967 13.9697 0.914986 13.5V9.25502C0.92477 8.46815 1.10245 7.69245 1.43615 6.97978C1.76985 6.26711 2.25188 5.63391 2.84999 5.12252L6.68249 1.81502C7.33715 1.24722 8.17465 0.934631 9.04124 0.934631C9.90782 0.934631 10.7453 1.24722 11.4 1.81502L15.2025 5.17502C15.7952 5.69427 16.2698 6.33441 16.5946 7.05238C16.9193 7.77036 17.0865 8.54953 17.085 9.33752V13.5525C17.082 14.0157 16.987 14.4738 16.8055 14.8999C16.6239 15.3261 16.3595 15.712 16.0275 16.035C15.694 16.3629 15.2991 16.6218 14.8654 16.7969C14.4317 16.9719 13.9677 17.0596 13.5 17.055ZM11.25 15.93H13.5C14.142 15.9328 14.7592 15.6821 15.2175 15.2325C15.4508 15.0171 15.6376 14.7563 15.7666 14.4662C15.8956 14.176 15.9639 13.8625 15.9675 13.545V9.33002C15.9695 8.70335 15.8366 8.08358 15.5778 7.51286C15.319 6.94214 14.9403 6.43384 14.4675 6.02252L10.6575 2.67752C10.2069 2.2895 9.63209 2.07608 9.03749 2.07608C8.44289 2.07608 7.86803 2.2895 7.41749 2.67752L3.58499 6.00002C3.11391 6.41114 2.73631 6.91835 2.47758 7.48756C2.21885 8.05677 2.08499 8.67477 2.08499 9.30002V13.545C2.09483 14.179 2.35361 14.7837 2.80545 15.2285C3.25728 15.6733 3.86593 15.9226 4.49999 15.9225H11.25V15.93ZM12.54 13.8C12.54 13.6508 12.4807 13.5078 12.3752 13.4023C12.2697 13.2968 12.1267 13.2375 11.9775 13.2375H5.99999C5.8508 13.2375 5.70773 13.2968 5.60224 13.4023C5.49675 13.5078 5.43749 13.6508 5.43749 13.8C5.43749 13.9492 5.49675 14.0923 5.60224 14.1978C5.70773 14.3033 5.8508 14.3625 5.99999 14.3625H12C12.1421 14.3551 12.2763 14.2949 12.3762 14.1935C12.4761 14.0922 12.5346 13.9572 12.54 13.815V13.8Z" fill="#3E97FF"/>
</g>
<defs>
<clipPath id="clip0_1_2006">
<rect width="18" height="18" fill="white"/>
</clipPath>
</defs>
</svg>
