<svg width="25" height="24" viewBox="0 0 25 24" fill="none" xmlns="http://www.w3.org/2000/svg">
<path opacity="0.3" d="M10.97 21.53L5.46999 18.35C4.91286 18.0295 4.45024 17.5676 4.1289 17.011C3.80757 16.4543 3.63891 15.8227 3.63999 15.18V8.82C3.63891 8.17728 3.80757 7.54566 4.1289 6.98903C4.45024 6.4324 4.91286 5.97048 5.46999 5.65L10.97 2.47C11.527 2.15071 12.1579 1.98273 12.8 1.98273C13.4421 1.98273 14.0729 2.15071 14.63 2.47L20.13 5.65C20.6871 5.97048 21.1497 6.4324 21.4711 6.98903C21.7924 7.54566 21.9611 8.17728 21.96 8.82V15.18C21.9611 15.8227 21.7924 16.4543 21.4711 17.011C21.1497 17.5676 20.6871 18.0295 20.13 18.35L14.63 21.53C14.0729 21.8493 13.4421 22.0173 12.8 22.0173C12.1579 22.0173 11.527 21.8493 10.97 21.53V21.53Z" fill="#F7C000"/>
<path d="M12.8 13.4C13.0652 13.4 13.3196 13.2946 13.5071 13.1071C13.6946 12.9196 13.8 12.6652 13.8 12.4V7.73999C13.8 7.47477 13.6946 7.22042 13.5071 7.03288C13.3196 6.84535 13.0652 6.73999 12.8 6.73999C12.5348 6.73999 12.2804 6.84535 12.0929 7.03288C11.9053 7.22042 11.8 7.47477 11.8 7.73999V12.4C11.8 12.6652 11.9053 12.9196 12.0929 13.1071C12.2804 13.2946 12.5348 13.4 12.8 13.4Z" fill="#F7C000"/>
<path d="M12.8 17.26C13.4903 17.26 14.05 16.7004 14.05 16.01C14.05 15.3197 13.4903 14.76 12.8 14.76C12.1096 14.76 11.55 15.3197 11.55 16.01C11.55 16.7004 12.1096 17.26 12.8 17.26Z" fill="black"/>
</svg>
