<svg width="24" height="24" viewBox="0 0 24 24" fill="none" xmlns="http://www.w3.org/2000/svg">
<path opacity="0.3" d="M10.17 21.53L4.67 18.35C4.11287 18.0295 3.65025 17.5676 3.32892 17.011C3.00758 16.4543 2.83892 15.8227 2.84 15.18V8.82C2.83892 8.17727 3.00758 7.54566 3.32892 6.98903C3.65025 6.43239 4.11287 5.97048 4.67 5.65L10.17 2.47C10.727 2.15071 11.3579 1.98273 12 1.98273C12.6421 1.98273 13.273 2.15071 13.83 2.47L19.33 5.65C19.8871 5.97048 20.3497 6.43239 20.6711 6.98903C20.9924 7.54566 21.1611 8.17727 21.16 8.82V15.18C21.1611 15.8227 20.9924 16.4543 20.6711 17.011C20.3497 17.5676 19.8871 18.0295 19.33 18.35L13.83 21.53C13.273 21.8493 12.6421 22.0173 12 22.0173C11.3579 22.0173 10.727 21.8493 10.17 21.53V21.53Z" fill="black"/>
<path d="M12 13.4C12.2652 13.4 12.5196 13.2946 12.7071 13.1071C12.8946 12.9196 13 12.6652 13 12.4V7.74C13 7.47478 12.8946 7.22043 12.7071 7.03289C12.5196 6.84536 12.2652 6.74 12 6.74C11.7348 6.74 11.4804 6.84536 11.2929 7.03289C11.1054 7.22043 11 7.47478 11 7.74V12.4C11 12.6652 11.1054 12.9196 11.2929 13.1071C11.4804 13.2946 11.7348 13.4 12 13.4Z" fill="black"/>
<path d="M12 17.26C12.6904 17.26 13.25 16.7004 13.25 16.01C13.25 15.3196 12.6904 14.76 12 14.76C11.3096 14.76 10.75 15.3196 10.75 16.01C10.75 16.7004 11.3096 17.26 12 17.26Z" fill="black"/>
</svg>
