<svg width="250" height="73" viewBox="0 0 250 73" fill="none" xmlns="http://www.w3.org/2000/svg">
<path d="M142.781 3.47108L153.742 37.5978C154.364 39.5342 152.919 41.5151 150.885 41.5151H143.961C141.783 41.5151 139.855 40.1046 139.196 38.0283L128.362 3.90789C127.748 1.9734 129.192 0 131.221 0H138.021C140.193 0 142.117 1.40275 142.781 3.47108Z" fill="#50CD89"/>
<path d="M129.212 28.0488L121.203 2.39408C120.758 0.969858 119.439 0 117.947 0C115.872 0 114.16 1.62646 114.055 3.69927L113.101 22.4099C113.055 23.3218 113.165 24.2349 113.427 25.1098L117.694 39.3749C118.074 40.645 119.242 41.5151 120.568 41.5151H124.627C125.933 41.5151 127.088 40.6705 127.485 39.4264L129.194 34.0666C129.818 32.1101 129.824 30.009 129.212 28.0488Z" fill="white"/>
<path d="M129.212 28.0488L121.203 2.39408C120.758 0.969858 119.439 0 117.947 0C115.872 0 114.16 1.62646 114.055 3.69927L113.101 22.4099C113.055 23.3218 113.165 24.2349 113.427 25.1098L117.694 39.3749C118.074 40.645 119.242 41.5151 120.568 41.5151H124.627C125.933 41.5151 127.088 40.6705 127.485 39.4264L129.194 34.0666C129.818 32.1101 129.824 30.009 129.212 28.0488Z" fill="url(#paint0_linear_61_1260)"/>
<path d="M129.212 28.0488L121.203 2.39408C120.758 0.969858 119.439 0 117.947 0C115.872 0 114.16 1.62646 114.055 3.69927L113.101 22.4099C113.055 23.3218 113.165 24.2349 113.427 25.1098L117.694 39.3749C118.074 40.645 119.242 41.5151 120.568 41.5151H124.627C125.933 41.5151 127.088 40.6705 127.485 39.4264L129.194 34.0666C129.818 32.1101 129.824 30.009 129.212 28.0488Z" stroke="black"/>
<path d="M112.053 0H118.525C120.54 0 121.982 1.94701 121.394 3.87453L110.911 38.2757C110.269 40.3801 108.328 41.8181 106.128 41.8181H99.6559C97.6409 41.8181 96.1988 39.8711 96.7862 37.9436L107.27 3.54245C107.911 1.438 109.853 0 112.053 0Z" fill="#50CD89"/>
<g clip-path="url(#clip0_61_1260)">
<path d="M65.5293 72.0181H69.2904L69.7605 65.3205C69.846 64.1973 69.7605 62.8245 69.7605 62.8245H69.8033C69.8033 62.8245 70.3162 64.3845 70.6581 65.3205L72.2608 69.6261H75.4663L77.069 65.3205C77.4109 64.3845 77.9238 62.8245 77.9238 62.8245H77.9665C77.9665 62.8245 77.8811 64.1973 77.9665 65.3205L78.4367 72.0181H82.1764L80.937 57.1461H76.8767L74.6542 63.4277C74.3123 64.3845 73.8849 65.8821 73.8849 65.8821H73.8422C73.8422 65.8821 73.4148 64.3845 73.0729 63.4277L70.8504 57.1461H66.7901L65.5293 72.0181ZM85.9443 72.0181H95.8172V68.8981H89.684V66.0901H94.3427V62.9701H89.684V60.2661H95.518V57.1461H85.9443V72.0181ZM102.076 72.0181H105.816V60.2661H110.453V57.1461H97.439V60.2661H102.076V72.0181ZM112.979 72.0181H116.719V67.0053H118.471L121.185 72.0181H125.352L122.382 66.8181C122.018 66.1941 121.805 65.9237 121.805 65.9237V65.8821C123.322 65.1333 124.091 63.4069 124.091 61.8261C124.091 59.6629 123.001 58.1445 121.27 57.4997C120.608 57.2501 119.86 57.1461 118.3 57.1461H112.979V72.0181ZM116.719 63.8853V60.2661H117.979C119.86 60.2661 120.287 60.9317 120.287 62.0549C120.287 63.2405 119.539 63.8853 118.343 63.8853H116.719ZM127.098 64.4885C127.098 68.8565 130.474 72.2677 135.09 72.2677C139.706 72.2677 143.082 68.8565 143.082 64.4885C143.082 60.2245 139.706 56.8965 135.09 56.8965C130.474 56.8965 127.098 60.2245 127.098 64.4885ZM130.966 64.4885C130.966 62.0549 132.804 60.2245 135.09 60.2245C137.377 60.2245 139.214 62.0549 139.214 64.4885C139.214 67.0261 137.377 68.9397 135.09 68.9397C132.804 68.9397 130.966 67.0261 130.966 64.4885ZM146.274 72.0181H150.014V65.0917C150.014 64.1557 149.843 62.5541 149.843 62.5541H149.885C149.885 62.5541 150.569 64.1141 151.168 65.0917L155.42 72.0181H159.181V57.1461H155.442V64.0933C155.442 65.0293 155.613 66.6309 155.613 66.6309H155.57C155.57 66.6309 154.886 65.0709 154.288 64.0933L150.056 57.1461H146.274V72.0181ZM163.422 72.0181H167.162V57.1461H163.422V72.0181ZM170.341 64.5509C170.341 68.9605 173.568 72.2677 178.355 72.2677C182.351 72.2677 184.51 69.7717 184.51 69.7717L182.586 67.1093C182.586 67.1093 180.834 68.9397 178.526 68.9397C175.705 68.9397 174.209 66.6725 174.209 64.4677C174.209 62.3253 175.598 60.2245 178.526 60.2245C180.642 60.2245 182.351 61.7429 182.351 61.7429L184.082 58.9973C184.082 58.9973 182.137 56.8965 178.355 56.8965C173.76 56.8965 170.341 60.2245 170.341 64.5509Z" fill="white"/>
</g>
<defs>
<linearGradient id="paint0_linear_61_1260" x1="115.304" y1="23.0303" x2="124.092" y2="25.7576" gradientUnits="userSpaceOnUse">
<stop stop-color="#18175A" stop-opacity="0.42"/>
<stop offset="0.911458" stop-color="#65719B" stop-opacity="0"/>
</linearGradient>
<clipPath id="clip0_61_1260">
<rect width="120" height="16" fill="white" transform="translate(65 56.8181)"/>
</clipPath>
</defs>
</svg>
