<svg width="24" height="24" viewBox="0 0 24 24" fill="none" xmlns="http://www.w3.org/2000/svg">
<path opacity="0.3" d="M21.5 19.42L18.33 16.42C17.7273 17.196 17.0049 17.8711 16.19 18.42L19.45 21.52C19.5871 21.6801 19.7566 21.8093 19.9473 21.8991C20.138 21.9888 20.3455 22.0371 20.5563 22.0407C20.767 22.0443 20.9761 22.0032 21.1698 21.92C21.3635 21.8368 21.5373 21.7135 21.6798 21.5582C21.8222 21.4029 21.9302 21.2191 21.9964 21.019C22.0626 20.8189 22.0856 20.6071 22.0639 20.3974C22.0422 20.1878 21.9762 19.9851 21.8704 19.8028C21.7646 19.6206 21.6213 19.4628 21.45 19.34L21.5 19.42Z" fill="black"/>
<path d="M11.14 2C9.35997 2 7.61991 2.52784 6.13987 3.51677C4.65983 4.50571 3.50627 5.91131 2.82508 7.55585C2.1439 9.20038 1.96567 11.01 2.31293 12.7558C2.6602 14.5016 3.51737 16.1053 4.77604 17.364C6.03471 18.6226 7.63836 19.4798 9.38419 19.8271C11.13 20.1743 12.9396 19.9961 14.5842 19.3149C16.2287 18.6337 17.6343 17.4802 18.6232 16.0001C19.6122 14.5201 20.14 12.78 20.14 11C20.14 8.61305 19.1918 6.32387 17.504 4.63604C15.8161 2.94821 13.5269 2 11.14 2ZM11.14 17.36C9.88452 17.36 8.6572 16.9878 7.61317 16.2905C6.56914 15.5932 5.75524 14.6021 5.27433 13.4423C4.79342 12.2826 4.66708 11.0064 4.91129 9.77485C5.1555 8.54334 5.75929 7.41187 6.64635 6.52341C7.53341 5.63495 8.66394 5.02938 9.89506 4.78323C11.1262 4.53709 12.4026 4.66142 13.5631 5.1405C14.7236 5.61958 15.716 6.43192 16.415 7.47486C17.1139 8.51779 17.488 9.74452 17.49 11C17.4926 11.8351 17.3303 12.6625 17.0122 13.4347C16.6941 14.2068 16.2267 14.9086 15.6366 15.4995C15.0466 16.0905 14.3456 16.5591 13.5739 16.8784C12.8022 17.1976 11.9751 17.3613 11.14 17.36V17.36Z" fill="black"/>
</svg>
