<svg width="25" height="24" viewBox="0 0 25 24" fill="none" xmlns="http://www.w3.org/2000/svg">
<path opacity="0.3" d="M22.3 19.42L19.13 16.42C18.5273 17.196 17.8049 17.8711 16.99 18.42L20.25 21.52C20.3871 21.6801 20.5566 21.8093 20.7473 21.8991C20.938 21.9888 21.1455 22.0371 21.3563 22.0407C21.567 22.0443 21.7761 22.0032 21.9698 21.92C22.1634 21.8369 22.3373 21.7135 22.4797 21.5582C22.6222 21.4029 22.7301 21.2191 22.7964 21.0191C22.8626 20.819 22.8856 20.6071 22.8639 20.3974C22.8422 20.1878 22.7762 19.9851 22.6704 19.8029C22.5646 19.6206 22.4213 19.4628 22.25 19.34L22.3 19.42Z" fill="#5014D0"/>
<path d="M11.94 2C10.16 2 8.41992 2.52784 6.93987 3.51677C5.45983 4.50571 4.30628 5.91131 3.62509 7.55585C2.9439 9.20038 2.76567 11.01 3.11294 12.7558C3.46021 14.5016 4.31737 16.1053 5.57605 17.364C6.83472 18.6226 8.43836 19.4798 10.1842 19.8271C11.93 20.1743 13.7396 19.9961 15.3842 19.3149C17.0287 18.6337 18.4343 17.4802 19.4232 16.0001C20.4122 14.5201 20.94 12.78 20.94 11C20.94 8.61305 19.9918 6.32387 18.304 4.63604C16.6161 2.94821 14.327 2 11.94 2ZM11.94 17.36C10.6845 17.36 9.45721 16.9878 8.41318 16.2905C7.36914 15.5932 6.55524 14.6021 6.07433 13.4423C5.59343 12.2826 5.46709 11.0064 5.7113 9.77485C5.9555 8.54334 6.55929 7.41187 7.44635 6.52341C8.33342 5.63495 9.46394 5.02938 10.6951 4.78324C11.9262 4.53709 13.2026 4.66142 14.3631 5.1405C15.5236 5.61958 16.516 6.43192 17.215 7.47486C17.9139 8.51779 18.288 9.74452 18.29 11C18.2926 11.8351 18.1303 12.6625 17.8122 13.4347C17.4941 14.2068 17.0267 14.9086 16.4366 15.4995C15.8466 16.0905 15.1456 16.5591 14.3739 16.8784C13.6023 17.1976 12.7751 17.3613 11.94 17.36V17.36Z" fill="#5014D0"/>
</svg>
