<svg width="24" height="24" viewBox="0 0 24 24" fill="none" xmlns="http://www.w3.org/2000/svg">
<path d="M21.57 19.41L18.36 16.41C19.7241 14.5916 20.3548 12.3267 20.127 10.065C19.8991 7.80316 18.8292 5.70969 17.1298 4.19992C15.4303 2.69016 13.2253 1.87444 10.9524 1.91462C8.67956 1.95481 6.50483 2.84796 4.85977 4.41685C3.21472 5.98574 2.21956 8.11573 2.07176 10.3842C1.92397 12.6526 2.63433 14.8937 4.0619 16.6628C5.48947 18.4319 7.52992 19.5997 9.77838 19.9344C12.0268 20.2692 14.319 19.7465 16.2 18.47V18.47L19.5 21.6C19.7743 21.8507 20.1286 21.996 20.5 22.01C20.7053 22.0117 20.9087 21.9698 21.0966 21.8871C21.2845 21.8043 21.4527 21.6826 21.59 21.53C21.729 21.3901 21.8388 21.224 21.9131 21.0413C21.9874 20.8586 22.0247 20.663 22.0229 20.4658C22.021 20.2686 21.98 20.0737 21.9023 19.8925C21.8246 19.7113 21.7116 19.5473 21.57 19.41V19.41ZM11.1 17.33C9.83505 17.328 8.59906 16.9512 7.54812 16.2472C6.49718 15.5432 5.67843 14.5436 5.19527 13.3746C4.7121 12.2055 4.58621 10.9195 4.83347 9.67898C5.08073 8.43843 5.69007 7.29898 6.58452 6.40452C7.47898 5.51007 8.61843 4.90073 9.85898 4.65347C11.0995 4.40621 12.3855 4.53211 13.5546 5.01527C14.7236 5.49843 15.7232 6.31718 16.4272 7.36812C17.1312 8.41906 17.508 9.65505 17.51 10.92C17.51 11.7618 17.3442 12.5953 17.0221 13.373C16.6999 14.1507 16.2278 14.8573 15.6326 15.4526C15.0373 16.0478 14.3307 16.5199 13.553 16.8421C12.7753 17.1642 11.9418 17.33 11.1 17.33Z" fill="black"/>
</svg>
