<svg width="22" height="22" viewBox="0 0 22 22" fill="none" xmlns="http://www.w3.org/2000/svg">
<path d="M19.7725 17.7925L16.83 15.0425C18.0805 13.3756 18.6586 11.2995 18.4497 9.22622C18.2408 7.15291 17.2601 5.23389 15.7023 3.84994C14.1444 2.46599 12.1232 1.71825 10.0397 1.75508C7.95626 1.79192 5.96276 2.61064 4.45479 4.04879C2.94682 5.48695 2.0346 7.43943 1.89911 9.51883C1.76363 11.5982 2.4148 13.6526 3.72341 15.2742C5.03201 16.8959 6.90242 17.9664 8.96351 18.2732C11.0246 18.5801 13.1257 18.101 14.85 16.9308V16.9308L17.875 19.8C18.1264 20.0298 18.4513 20.163 18.7917 20.1758C18.9799 20.1774 19.1663 20.139 19.3385 20.0632C19.5108 19.9873 19.6649 19.8757 19.7908 19.7358C19.9182 19.6076 20.0189 19.4553 20.087 19.2879C20.1552 19.1204 20.1894 18.9411 20.1876 18.7604C20.1859 18.5796 20.1484 18.4009 20.0771 18.2348C20.0058 18.0687 19.9023 17.9183 19.7725 17.7925V17.7925ZM10.175 15.8858C9.01546 15.884 7.88247 15.5387 6.91911 14.8933C5.95574 14.248 5.20522 13.3316 4.76232 12.26C4.31943 11.1884 4.20402 10.0096 4.43068 8.87241C4.65734 7.73524 5.2159 6.69074 6.03581 5.87083C6.85573 5.05091 7.90023 4.49235 9.03739 4.26569C10.1746 4.03904 11.3534 4.15444 12.425 4.59734C13.4966 5.04024 14.413 5.79076 15.0583 6.75412C15.7036 7.71749 16.049 8.85048 16.0508 10.01C16.0508 10.7816 15.8988 11.5457 15.6036 12.2586C15.3083 12.9715 14.8755 13.6192 14.3298 14.1649C13.7842 14.7105 13.1365 15.1433 12.4236 15.4386C11.7107 15.7339 10.9466 15.8858 10.175 15.8858Z" fill="#A1A5B7"/>
</svg>
