<svg width="18" height="18" viewBox="0 0 18 18" fill="none" xmlns="http://www.w3.org/2000/svg">
<path d="M6.00002 16.86C5.79623 16.8617 5.5952 16.8127 5.41502 16.7175C5.20326 16.6117 5.02515 16.449 4.90063 16.2476C4.77611 16.0463 4.71011 15.8143 4.71002 15.5775V14.1375C3.6992 14.0875 2.74627 13.6509 2.0483 12.918C1.35033 12.1852 0.960709 11.2121 0.960022 10.2V5.08501C0.961969 4.04322 1.37514 3.04433 2.10969 2.30557C2.84424 1.5668 3.84076 1.14792 4.88252 1.14001H13.1325C14.1782 1.142 15.1805 1.55827 15.9199 2.29767C16.6593 3.03707 17.0755 4.03934 17.0775 5.08501V10.2C17.0755 11.2457 16.6593 12.248 15.9199 12.9874C15.1805 13.7268 14.1782 14.143 13.1325 14.145H10.2C10.1684 14.1342 10.1341 14.1342 10.1025 14.145L6.75002 16.62C6.53048 16.7749 6.26869 16.8587 6.00002 16.86V16.86ZM4.88252 2.25001C4.51093 2.25001 4.143 2.32344 3.79988 2.4661C3.45676 2.60876 3.14522 2.81782 2.88316 3.08127C2.6211 3.34472 2.41369 3.65737 2.27286 4.00124C2.13203 4.34511 2.06055 4.71343 2.06252 5.08501V10.2C2.0645 10.9473 2.36224 11.6634 2.89067 12.1919C3.41909 12.7203 4.13522 13.018 4.88252 13.02C5.00465 13.02 5.12559 13.0441 5.23842 13.0908C5.35125 13.1375 5.45377 13.206 5.54013 13.2924C5.62649 13.3788 5.69499 13.4813 5.74173 13.5941C5.78847 13.707 5.81252 13.8279 5.81252 13.95V15.5775C5.81152 15.6075 5.81957 15.6372 5.83562 15.6626C5.85166 15.688 5.87497 15.708 5.90252 15.72C5.92615 15.7383 5.95517 15.7482 5.98502 15.7482C6.01488 15.7482 6.04389 15.7383 6.06752 15.72L9.44252 13.275C9.66162 13.1193 9.9237 13.0354 10.1925 13.035H13.11C13.8573 13.033 14.5735 12.7353 15.1019 12.2069C15.6303 11.6784 15.928 10.9623 15.93 10.215V5.08501C15.932 4.71406 15.8608 4.34635 15.7204 4.00297C15.58 3.65959 15.3733 3.34728 15.112 3.08392C14.8508 2.82057 14.5401 2.61135 14.1979 2.46826C13.8556 2.32516 13.4885 2.251 13.1175 2.25001H4.88252ZM9.00002 4.59001C8.54252 4.59001 8.10376 4.77176 7.78026 5.09526C7.45676 5.41876 7.27502 5.85752 7.27502 6.31501C7.27502 6.4642 7.33429 6.60727 7.43977 6.71276C7.54526 6.81825 7.68834 6.87751 7.83752 6.87751C7.98671 6.87751 8.12978 6.81825 8.23527 6.71276C8.34076 6.60727 8.40002 6.4642 8.40002 6.31501C8.40002 6.15588 8.46324 6.00327 8.57576 5.89075C8.68828 5.77823 8.84089 5.71501 9.00002 5.71501C9.15915 5.71501 9.31176 5.77823 9.42429 5.89075C9.53681 6.00327 9.60002 6.15588 9.60002 6.31501C9.59987 6.41902 9.57199 6.5211 9.51925 6.61074C9.46652 6.70038 9.39085 6.77435 9.30002 6.82501C9.02896 6.99795 8.80714 7.23794 8.65604 7.52175C8.50493 7.80556 8.42967 8.12358 8.43752 8.44501V8.65501C8.43752 8.8042 8.49679 8.94727 8.60227 9.05276C8.70776 9.15825 8.85084 9.21751 9.00002 9.21751C9.14921 9.21751 9.29228 9.15825 9.39777 9.05276C9.50326 8.94727 9.56252 8.8042 9.56252 8.65501V8.44501C9.55608 8.32041 9.58083 8.19617 9.63452 8.08354C9.68822 7.97091 9.76916 7.87346 9.87002 7.80001C10.1951 7.6079 10.4481 7.31446 10.5903 6.9647C10.7325 6.61493 10.756 6.22817 10.6573 5.86375C10.5585 5.49933 10.3429 5.17738 10.0435 4.9473C9.74417 4.71721 9.37759 4.5917 9.00002 4.59001V4.59001ZM9.00002 9.75001C8.88877 9.75001 8.78002 9.783 8.68751 9.84481C8.59501 9.90662 8.52291 9.99447 8.48034 10.0973C8.43777 10.2 8.42663 10.3131 8.44833 10.4223C8.47003 10.5314 8.52361 10.6316 8.60227 10.7103C8.68094 10.7889 8.78117 10.8425 8.89028 10.8642C8.9994 10.8859 9.1125 10.8748 9.21528 10.8322C9.31806 10.7896 9.40592 10.7175 9.46772 10.625C9.52953 10.5325 9.56252 10.4238 9.56252 10.3125C9.56058 10.1639 9.50069 10.022 9.39562 9.91691C9.29055 9.81184 9.1486 9.75196 9.00002 9.75001V9.75001Z" fill="#A1A5B7"/>
</svg>
