<svg width="24" height="24" viewBox="0 0 24 24" fill="none" xmlns="http://www.w3.org/2000/svg">
<path d="M8 22.48C7.72827 22.4823 7.46024 22.417 7.22 22.29C6.93765 22.1489 6.70017 21.932 6.53414 21.6635C6.36812 21.395 6.28012 21.0856 6.28 20.77V18.85C4.93224 18.7833 3.66166 18.2012 2.73103 17.224C1.80041 16.2469 1.28092 14.9494 1.28 13.6V6.78C1.2826 5.39094 1.8335 4.05908 2.8129 3.07407C3.7923 2.08905 5.12098 1.53054 6.51 1.52H17.51C18.9042 1.52264 20.2406 2.07767 21.2265 3.06354C22.2123 4.04941 22.7674 5.38577 22.77 6.78V13.6C22.7674 14.9942 22.2123 16.3306 21.2265 17.3165C20.2406 18.3023 18.9042 18.8574 17.51 18.86H13.6C13.5579 18.8455 13.5121 18.8455 13.47 18.86L9 22.16C8.70728 22.3665 8.35823 22.4782 8 22.48V22.48ZM6.51 3C6.01454 2.99999 5.52397 3.09791 5.06648 3.28811C4.60898 3.47832 4.19359 3.75707 3.84418 4.10834C3.49477 4.45961 3.21823 4.87647 3.03045 5.33497C2.84267 5.79346 2.74736 6.28455 2.75 6.78V13.6C2.75264 14.5964 3.14963 15.5512 3.85419 16.2558C4.55876 16.9604 5.5136 17.3574 6.51 17.36C6.67284 17.36 6.83408 17.3921 6.98453 17.4544C7.13497 17.5167 7.27167 17.608 7.38681 17.7232C7.50196 17.8383 7.59329 17.975 7.65561 18.1255C7.71793 18.2759 7.75 18.4372 7.75 18.6V20.77C7.74867 20.81 7.7594 20.8496 7.78079 20.8834C7.80219 20.9173 7.83327 20.944 7.87 20.96C7.90151 20.9843 7.94019 20.9975 7.98 20.9975C8.01981 20.9975 8.05849 20.9843 8.09 20.96L12.59 17.7C12.8821 17.4923 13.2316 17.3805 13.59 17.38H17.48C18.4764 17.3774 19.4312 16.9804 20.1358 16.2758C20.8404 15.5712 21.2374 14.6164 21.24 13.62V6.78C21.2426 6.28539 21.1477 5.79512 20.9605 5.33728C20.7733 4.87943 20.4977 4.46302 20.1493 4.11188C19.801 3.76074 19.3868 3.48178 18.9304 3.29099C18.4741 3.10019 17.9846 3.00131 17.49 3H6.51ZM12 6.12C11.39 6.12 10.805 6.36232 10.3737 6.79365C9.94232 7.22499 9.7 7.81 9.7 8.42C9.7 8.61891 9.77902 8.80968 9.91967 8.95033C10.0603 9.09098 10.2511 9.17 10.45 9.17C10.6489 9.17 10.8397 9.09098 10.9803 8.95033C11.121 8.80968 11.2 8.61891 11.2 8.42C11.2 8.20783 11.2843 8.00434 11.4343 7.85431C11.5843 7.70429 11.7878 7.62 12 7.62C12.2122 7.62 12.4157 7.70429 12.5657 7.85431C12.7157 8.00434 12.8 8.20783 12.8 8.42C12.7998 8.55867 12.7626 8.69478 12.6923 8.8143C12.622 8.93382 12.5211 9.03244 12.4 9.1C12.0386 9.33058 11.7428 9.65057 11.5414 10.029C11.3399 10.4074 11.2395 10.8314 11.25 11.26V11.54C11.25 11.7389 11.329 11.9297 11.4697 12.0703C11.6103 12.211 11.8011 12.29 12 12.29C12.1989 12.29 12.3897 12.211 12.5303 12.0703C12.671 11.9297 12.75 11.7389 12.75 11.54V11.26C12.7414 11.0939 12.7744 10.9282 12.846 10.778C12.9176 10.6279 13.0255 10.4979 13.16 10.4C13.5934 10.1439 13.9308 9.75259 14.1204 9.28624C14.31 8.81989 14.3413 8.30421 14.2097 7.81832C14.078 7.33243 13.7905 6.90316 13.3913 6.59638C12.9922 6.2896 12.5034 6.12225 12 6.12V6.12ZM12 13C11.8517 13 11.7067 13.044 11.5833 13.1264C11.46 13.2088 11.3639 13.3259 11.3071 13.463C11.2503 13.6 11.2355 13.7508 11.2644 13.8963C11.2934 14.0418 11.3648 14.1754 11.4697 14.2803C11.5746 14.3852 11.7082 14.4567 11.8537 14.4856C11.9992 14.5145 12.15 14.4997 12.287 14.4429C12.4241 14.3861 12.5412 14.29 12.6236 14.1667C12.706 14.0433 12.75 13.8983 12.75 13.75C12.7474 13.5519 12.6676 13.3626 12.5275 13.2225C12.3874 13.0824 12.1981 13.0026 12 13V13Z" fill="black"/>
</svg>
