<svg width="24" height="24" viewBox="0 0 24 24" fill="none" xmlns="http://www.w3.org/2000/svg">
<path d="M20.66 14.2C19.8342 12.9578 19.4117 11.4911 19.45 10V9.85C19.4476 8.27752 18.861 6.76204 17.8039 5.59783C16.7469 4.43363 15.2949 3.70377 13.73 3.55V2.38C13.73 2.18109 13.651 1.99032 13.5103 1.84967C13.3697 1.70902 13.1789 1.63 12.98 1.63C12.7811 1.63 12.5903 1.70902 12.4497 1.84967C12.309 1.99032 12.23 2.18109 12.23 2.38V3.59C11.6711 3.65487 11.1231 3.79271 10.6 4C9.45277 4.47839 8.47645 5.2916 7.79854 6.33344C7.12063 7.37528 6.77264 8.59732 6.8 9.84C6.81228 11.4228 6.31047 12.9668 5.37 14.24L4.7 15.16C4.38243 15.5857 4.18969 16.0915 4.14337 16.6206C4.09706 17.1497 4.199 17.6813 4.43778 18.1557C4.67656 18.6302 5.04274 19.0288 5.49528 19.3068C5.94783 19.5849 6.46886 19.7314 7 19.73H10.28V20.06C10.3686 20.7065 10.6884 21.2991 11.1801 21.7281C11.6719 22.1571 12.3024 22.3934 12.955 22.3934C13.6076 22.3934 14.2381 22.1571 14.7299 21.7281C15.2216 21.2991 15.5414 20.7065 15.63 20.06V19.73H19C19.5218 19.7227 20.0321 19.5753 20.4773 19.3031C20.9226 19.0309 21.2864 18.644 21.5308 18.1829C21.7752 17.7218 21.891 17.2034 21.8662 16.6822C21.8415 16.1609 21.677 15.6559 21.39 15.22L20.66 14.2ZM14.16 19.89C14.1037 20.1627 13.9551 20.4076 13.7392 20.5834C13.5233 20.7593 13.2534 20.8553 12.975 20.8553C12.6966 20.8553 12.4267 20.7593 12.2108 20.5834C11.9949 20.4076 11.8463 20.1627 11.79 19.89V19.73H14.16V19.89ZM19 18.23H7C6.74726 18.2291 6.4997 18.1583 6.28469 18.0254C6.06969 17.8926 5.89564 17.7028 5.78178 17.4772C5.66792 17.2515 5.6187 16.9988 5.63957 16.7469C5.66043 16.495 5.75057 16.2538 5.9 16.05L6.58 15.13C7.7201 13.5775 8.32385 11.696 8.3 9.77C8.28692 8.84209 8.55119 7.9314 9.05894 7.15462C9.5667 6.37784 10.2948 5.77036 11.15 5.41C11.7862 5.15649 12.4652 5.02749 13.15 5.03C13.785 5.02472 14.4148 5.14523 15.003 5.38459C15.5912 5.62395 16.1262 5.97742 16.5771 6.4246C17.028 6.87177 17.3858 7.40381 17.6301 7.99001C17.8743 8.5762 18 9.20496 18 9.84V10C17.9735 11.7755 18.4822 13.5178 19.46 15L20.14 16C20.2974 16.2403 20.3776 16.5229 20.37 16.81C20.3767 16.9941 20.3463 17.1776 20.2804 17.3496C20.2146 17.5217 20.1147 17.6787 19.9869 17.8112C19.859 17.9438 19.7057 18.0492 19.5361 18.1211C19.3665 18.1931 19.1842 18.2301 19 18.23V18.23Z" fill="black"/>
</svg>
