<svg width="20" height="20" viewBox="0 0 20 20" fill="none" xmlns="http://www.w3.org/2000/svg">
<path opacity="0.3" d="M9.16667 10.8333H5.83333C5.61232 10.8333 5.40036 10.7455 5.24408 10.5893C5.0878 10.433 5 10.221 5 10C5 9.77899 5.0878 9.56703 5.24408 9.41075C5.40036 9.25447 5.61232 9.16667 5.83333 9.16667H9.16667V10.8333ZM14.1667 9.16667H10.8333V10.8333H14.1667C14.3877 10.8333 14.5996 10.7455 14.7559 10.5893C14.9122 10.433 15 10.221 15 10C15 9.77899 14.9122 9.56703 14.7559 9.41075C14.5996 9.25447 14.3877 9.16667 14.1667 9.16667Z" fill="#3E97FF"/>
<path opacity="0.3" d="M13.4917 1.66667H6.50833C3.83435 1.66667 1.66666 3.83436 1.66666 6.50834V13.4917C1.66666 16.1657 3.83435 18.3333 6.50833 18.3333H13.4917C16.1656 18.3333 18.3333 16.1657 18.3333 13.4917V6.50834C18.3333 3.83436 16.1656 1.66667 13.4917 1.66667Z" fill="#3E97FF"/>
<path d="M14.1667 9.16667H10.8333V5.83333C10.8333 5.61232 10.7455 5.40036 10.5893 5.24408C10.433 5.0878 10.221 5 10 5C9.77899 5 9.56702 5.0878 9.41074 5.24408C9.25446 5.40036 9.16667 5.61232 9.16667 5.83333V9.16667H5.83333C5.61232 9.16667 5.40036 9.25446 5.24408 9.41074C5.0878 9.56702 5 9.77899 5 10C5 10.221 5.0878 10.433 5.24408 10.5893C5.40036 10.7455 5.61232 10.8333 5.83333 10.8333H9.16667V14.1667C9.16667 14.3877 9.25446 14.5996 9.41074 14.7559C9.56702 14.9122 9.77899 15 10 15C10.221 15 10.433 14.9122 10.5893 14.7559C10.7455 14.5996 10.8333 14.3877 10.8333 14.1667V10.8333H14.1667C14.3877 10.8333 14.5996 10.7455 14.7559 10.5893C14.9122 10.433 15 10.221 15 10C15 9.77899 14.9122 9.56702 14.7559 9.41074C14.5996 9.25446 14.3877 9.16667 14.1667 9.16667Z" fill="#3E97FF"/>
</svg>
