<svg width="20" height="20" viewBox="0 0 20 20" fill="none" xmlns="http://www.w3.org/2000/svg">
<path opacity="0.3" d="M10 18.3333C14.6024 18.3333 18.3333 14.6024 18.3333 10C18.3333 5.39763 14.6024 1.66667 10 1.66667C5.39762 1.66667 1.66666 5.39763 1.66666 10C1.66666 14.6024 5.39762 18.3333 10 18.3333Z" fill="#A1A5B7"/>
<path d="M10 11.6167C11.7489 11.6167 13.1667 10.1989 13.1667 8.45001C13.1667 6.70111 11.7489 5.28334 10 5.28334C8.25109 5.28334 6.83333 6.70111 6.83333 8.45001C6.83333 10.1989 8.25109 11.6167 10 11.6167Z" fill="#A1A5B7"/>
<path d="M10 18.3333C11.9881 18.3356 13.9106 17.6228 15.4167 16.325C15.0262 15.1994 14.2947 14.2234 13.324 13.5326C12.3532 12.8419 11.1914 12.4707 10 12.4707C8.80857 12.4707 7.64675 12.8419 6.676 13.5326C5.70525 14.2234 4.97381 15.1994 4.58333 16.325C6.08937 17.6228 8.01194 18.3356 10 18.3333V18.3333Z" fill="#A1A5B7"/>
</svg>
