<svg width="24" height="24" viewBox="0 0 24 24" fill="none" xmlns="http://www.w3.org/2000/svg">
<path opacity="0.3" d="M12 22C17.5228 22 22 17.5228 22 12C22 6.47715 17.5228 2 12 2C6.47715 2 2 6.47715 2 12C2 17.5228 6.47715 22 12 22Z" fill="black"/>
<path d="M12 13.94C14.0987 13.94 15.8 12.2387 15.8 10.14C15.8 8.04132 14.0987 6.34 12 6.34C9.90132 6.34 8.2 8.04132 8.2 10.14C8.2 12.2387 9.90132 13.94 12 13.94Z" fill="black"/>
<path d="M12 22C14.3857 22.0027 16.6927 21.1473 18.5 19.59C18.0314 18.2393 17.1537 17.0681 15.9888 16.2392C14.8239 15.4103 13.4297 14.9649 12 14.9649C10.5703 14.9649 9.1761 15.4103 8.01121 16.2392C6.84631 17.0681 5.96857 18.2393 5.5 19.59C7.30725 21.1473 9.61433 22.0027 12 22V22Z" fill="black"/>
</svg>
