<svg width="24" height="24" viewBox="0 0 24 24" fill="none" xmlns="http://www.w3.org/2000/svg">
<path d="M16.1 22.75H7.9C6.1247 22.7315 4.42884 22.0113 3.18285 20.7465C1.93685 19.4818 1.24198 17.7754 1.25 16V8C1.24198 6.22462 1.93685 4.5182 3.18285 3.25347C4.42884 1.98874 6.1247 1.26848 7.9 1.25H16.1C17.8753 1.26848 19.5712 1.98874 20.8172 3.25347C22.0631 4.5182 22.758 6.22462 22.75 8V16C22.758 17.7754 22.0631 19.4818 20.8172 20.7465C19.5712 22.0113 17.8753 22.7315 16.1 22.75V22.75ZM7.9 2.81C6.53487 2.82581 5.23117 3.3799 4.27239 4.35179C3.31361 5.32368 2.77727 6.63478 2.78 8V16C2.77727 17.3652 3.31361 18.6763 4.27239 19.6482C5.23117 20.6201 6.53487 21.1742 7.9 21.19H16.1C17.4651 21.1742 18.7688 20.6201 19.7276 19.6482C20.6864 18.6763 21.2227 17.3652 21.22 16V8C21.2227 6.63478 20.6864 5.32368 19.7276 4.35179C18.7688 3.3799 17.4651 2.82581 16.1 2.81H7.9ZM7.15 10.81C7.25993 10.7941 7.3651 10.7545 7.45832 10.6941C7.55153 10.6337 7.63056 10.5538 7.69 10.46L9.38 7.73C9.48937 7.5544 9.52549 7.34292 9.48061 7.14097C9.43574 6.93903 9.31344 6.76275 9.14 6.65C9.05516 6.59569 8.96025 6.55902 8.86093 6.54219C8.76161 6.52536 8.65991 6.52872 8.56192 6.55205C8.46392 6.57538 8.37163 6.61822 8.29055 6.678C8.20947 6.73778 8.14126 6.81328 8.09 6.9L6.87 8.9L6.18 8.29C6.10543 8.22174 6.01784 8.16926 5.92248 8.13572C5.82712 8.10217 5.72596 8.08825 5.62508 8.09479C5.5242 8.10132 5.42569 8.12819 5.33545 8.17376C5.24522 8.21934 5.16513 8.28269 5.1 8.36C4.96842 8.51737 4.90231 8.71926 4.91534 8.92398C4.92836 9.12869 5.01953 9.32058 5.17 9.46L6.54 10.67C6.67906 10.7903 6.85615 10.8576 7.04 10.86L7.15 10.81ZM18.72 9.26C18.7206 9.06312 18.6467 8.8733 18.5131 8.72863C18.3796 8.58396 18.1963 8.49514 18 8.48H12C11.8282 8.51968 11.6748 8.61643 11.5651 8.75445C11.4553 8.89248 11.3955 9.06364 11.3955 9.24C11.3955 9.41636 11.4553 9.58752 11.5651 9.72555C11.6748 9.86357 11.8282 9.96032 12 10H18C18.1896 9.9856 18.3674 9.90245 18.5 9.76618C18.6325 9.62991 18.7108 9.4499 18.72 9.26ZM7.12 16.26C7.22993 16.2441 7.33511 16.2045 7.42832 16.1441C7.52153 16.0837 7.60056 16.0038 7.66 15.91L9.35 13.2C9.45885 13.026 9.49469 12.816 9.44977 12.6157C9.40484 12.4154 9.28276 12.2409 9.11 12.13C8.94412 12.035 8.74824 12.007 8.56239 12.0516C8.37653 12.0962 8.21472 12.2101 8.11 12.37L6.89 14.37L6.2 13.76C6.12479 13.6923 6.03667 13.6406 5.94093 13.6078C5.8452 13.5751 5.74383 13.5621 5.64293 13.5696C5.54203 13.577 5.44369 13.6049 5.35382 13.6513C5.26395 13.6978 5.18442 13.762 5.12 13.84C4.98842 13.9974 4.92231 14.1993 4.93534 14.404C4.94836 14.6087 5.03953 14.8006 5.19 14.94L6.56 16.14C6.69663 16.2643 6.8753 16.3322 7.06 16.33L7.12 16.26ZM18.74 14.71C18.7254 14.5214 18.6419 14.3448 18.5054 14.2139C18.3689 14.0829 18.189 14.0068 18 14H12C11.7931 14 11.5947 14.0822 11.4485 14.2285C11.3022 14.3747 11.22 14.5731 11.22 14.78C11.22 14.9869 11.3022 15.1853 11.4485 15.3315C11.5947 15.4778 11.7931 15.56 12 15.56H18C18.1029 15.5562 18.204 15.5318 18.2973 15.4883C18.3907 15.4447 18.4743 15.3829 18.5433 15.3064C18.6123 15.2299 18.6653 15.1404 18.699 15.0431C18.7328 14.9458 18.7468 14.8428 18.74 14.74V14.71Z" fill="black"/>
</svg>
