<svg width="18" height="18" viewBox="0 0 18 18" fill="none" xmlns="http://www.w3.org/2000/svg">
<g clip-path="url(#clip0_1_2018)">
<path d="M12.075 17.0625H5.92499C4.59351 17.0486 3.32162 16.5084 2.38713 15.5599C1.45263 14.6113 0.931474 13.3315 0.93749 12V6C0.931474 4.66846 1.45263 3.38865 2.38713 2.4401C3.32162 1.49155 4.59351 0.951357 5.92499 0.9375H12.075C13.4065 0.951357 14.6784 1.49155 15.6129 2.4401C16.5474 3.38865 17.0685 4.66846 17.0625 6V12C17.0685 13.3315 16.5474 14.6113 15.6129 15.5599C14.6784 16.5084 13.4065 17.0486 12.075 17.0625V17.0625ZM5.92499 2.1075C4.90114 2.11936 3.92337 2.53493 3.20429 3.26384C2.4852 3.99276 2.08295 4.97609 2.08499 6V12C2.08295 13.0239 2.4852 14.0072 3.20429 14.7362C3.92337 15.4651 4.90114 15.8806 5.92499 15.8925H12.075C13.0988 15.8806 14.0766 15.4651 14.7957 14.7362C15.5148 14.0072 15.917 13.0239 15.915 12V6C15.917 4.97609 15.5148 3.99276 14.7957 3.26384C14.0766 2.53493 13.0988 2.11936 12.075 2.1075H5.92499ZM5.36249 8.1075C5.44494 8.09555 5.52382 8.0659 5.59373 8.02059C5.66363 7.97528 5.72291 7.91538 5.76749 7.845L7.03499 5.7975C7.11701 5.6658 7.14411 5.50719 7.11045 5.35573C7.07679 5.20427 6.98507 5.07206 6.85499 4.9875C6.79136 4.94677 6.72018 4.91927 6.64569 4.90665C6.5712 4.89402 6.49493 4.89654 6.42143 4.91404C6.34793 4.93154 6.27871 4.96366 6.2179 5.0085C6.15709 5.05333 6.10594 5.10996 6.06749 5.175L5.15249 6.675L4.63499 6.2175C4.57907 6.16631 4.51337 6.12695 4.44185 6.10179C4.37033 6.07663 4.29446 6.06619 4.2188 6.07109C4.14314 6.07599 4.06925 6.09614 4.00158 6.13032C3.9339 6.16451 3.87384 6.21202 3.82499 6.27C3.7263 6.38802 3.67672 6.53945 3.68649 6.69298C3.69626 6.84652 3.76464 6.99044 3.87749 7.095L4.90499 8.0025C5.00929 8.09271 5.1421 8.14318 5.27999 8.145L5.36249 8.1075ZM14.04 6.945C14.0404 6.79734 13.985 6.65498 13.8849 6.54647C13.7847 6.43797 13.6472 6.37136 13.5 6.36H8.99999C8.87111 6.38976 8.75612 6.46232 8.67378 6.56584C8.59144 6.66936 8.54661 6.79773 8.54661 6.93C8.54661 7.06227 8.59144 7.19064 8.67378 7.29416C8.75612 7.39768 8.87111 7.47024 8.99999 7.5H13.5C13.6422 7.4892 13.7755 7.42684 13.875 7.32463C13.9744 7.22243 14.0331 7.08743 14.04 6.945ZM5.33999 12.195C5.42244 12.183 5.50132 12.1534 5.57123 12.1081C5.64113 12.0628 5.70041 12.0029 5.74499 11.9325L7.01249 9.9C7.09413 9.76946 7.12101 9.61201 7.08731 9.46178C7.05362 9.31155 6.96206 9.18066 6.83249 9.0975C6.70808 9.02629 6.56117 9.00526 6.42178 9.03871C6.28239 9.07217 6.16103 9.15758 6.08249 9.2775L5.16749 10.7775L4.64999 10.32C4.59358 10.2692 4.52749 10.2304 4.45569 10.2059C4.38389 10.1813 4.30786 10.1716 4.23219 10.1772C4.15652 10.1828 4.08276 10.2036 4.01536 10.2385C3.94796 10.2734 3.8883 10.3215 3.83999 10.38C3.7413 10.498 3.69172 10.6494 3.70149 10.803C3.71126 10.9565 3.77964 11.1004 3.89249 11.205L4.91999 12.105C5.02246 12.1982 5.15646 12.2492 5.29499 12.2475L5.33999 12.195ZM14.055 11.0325C14.044 10.8911 13.9814 10.7586 13.879 10.6604C13.7767 10.5622 13.6418 10.5051 13.5 10.5H8.99999C8.84484 10.5 8.69604 10.5616 8.58633 10.6713C8.47662 10.7811 8.41499 10.9298 8.41499 11.085C8.41499 11.2402 8.47662 11.3889 8.58633 11.4987C8.69604 11.6084 8.84484 11.67 8.99999 11.67H13.5C13.5772 11.6672 13.653 11.6489 13.723 11.6162C13.793 11.5835 13.8557 11.5371 13.9075 11.4798C13.9592 11.4225 13.9989 11.3553 14.0243 11.2823C14.0496 11.2094 14.0601 11.1321 14.055 11.055V11.0325Z" fill="#A1A5B7"/>
</g>
<defs>
<clipPath id="clip0_1_2018">
<rect width="18" height="18" fill="white"/>
</clipPath>
</defs>
</svg>
