<svg width="24" height="24" viewBox="0 0 24 24" fill="none" xmlns="http://www.w3.org/2000/svg">
<path d="M21.11 6.31C21.016 6.15546 20.8878 6.02459 20.7352 5.92749C20.5827 5.83039 20.4098 5.76966 20.23 5.75C20.0502 5.72961 19.8681 5.74759 19.6957 5.80275C19.5233 5.85791 19.3646 5.949 19.23 6.07L16.3 8.8C16.1167 8.97297 15.99 9.19731 15.9364 9.44357C15.8829 9.68984 15.9051 9.94654 16 10.18C16.2064 10.6779 16.3151 11.211 16.32 11.75C16.3164 12.418 16.1554 13.0758 15.85 13.67C15.7264 13.8918 15.6745 14.1463 15.7014 14.3988C15.7282 14.6512 15.8325 14.8892 16 15.08L19 18.19C19.1151 18.3168 19.2556 18.418 19.4124 18.4869C19.5692 18.5558 19.7387 18.5909 19.91 18.59H20C20.1806 18.5757 20.3558 18.5217 20.5132 18.4318C20.6705 18.3419 20.806 18.2183 20.91 18.07C22.0923 16.3486 22.745 14.3188 22.7876 12.2309C22.8302 10.143 22.261 8.08828 21.15 6.32L21.11 6.31ZM19.83 17.07L17.16 14.21C17.4999 13.5206 17.6923 12.7679 17.725 12C17.7577 11.2321 17.63 10.4658 17.35 9.75L20 7.25C20.8636 8.68494 21.3263 10.3253 21.34 12C21.3415 13.801 20.8167 15.5633 19.83 17.07V17.07ZM8.94 7.5C9.11764 7.6861 9.34838 7.81285 9.60072 7.86297C9.85307 7.91308 10.1147 7.8841 10.35 7.78C10.9469 7.52397 11.5948 7.40883 12.2433 7.44351C12.8919 7.4782 13.5238 7.66177 14.09 7.98C14.2793 8.08626 14.4929 8.1414 14.71 8.14C15.0219 8.14142 15.3225 8.02333 15.55 7.81L18.37 5.17C18.5052 5.04274 18.6103 4.88697 18.6778 4.71399C18.7453 4.54102 18.7733 4.35519 18.76 4.17C18.7487 3.99088 18.6981 3.81645 18.6116 3.65915C18.5252 3.50186 18.4051 3.36557 18.26 3.26C16.5698 2.04992 14.5651 1.35582 12.4885 1.26175C10.412 1.16769 8.35265 1.67769 6.56 2.73C6.39923 2.82336 6.26172 2.95195 6.1578 3.1061C6.05387 3.26025 5.98625 3.43595 5.96 3.62C5.94283 3.80044 5.96329 3.98249 6.0201 4.15462C6.0769 4.32675 6.1688 4.48522 6.29 4.62L8.94 7.5ZM12 2.66C13.8737 2.65581 15.7045 3.22074 17.25 4.28L14.68 6.69C13.8566 6.24411 12.9363 6.00717 12 6C11.2761 6.00206 10.5595 6.1447 9.89 6.42L7.46 3.84C8.84831 3.06686 10.4109 2.66072 12 2.66ZM15.28 15.9C15.0988 15.706 14.8596 15.5758 14.5982 15.5289C14.3369 15.4821 14.0674 15.521 13.83 15.64C13.261 15.9213 12.6348 16.0676 12 16.0676C11.3652 16.0676 10.739 15.9213 10.17 15.64C9.94558 15.5275 9.69212 15.4864 9.44365 15.5221C9.19518 15.5579 8.9636 15.6688 8.78 15.84L5.6 18.84C5.46423 18.9668 5.3587 19.1225 5.29119 19.2956C5.22369 19.4687 5.19594 19.6547 5.21 19.84C5.21912 20.021 5.26879 20.1976 5.35533 20.3569C5.44187 20.5161 5.56308 20.6539 5.71 20.76C7.49696 22.0408 9.63452 22.7412 11.8329 22.7662C14.0314 22.7913 16.1843 22.1398 18 20.9C18.1475 20.8012 18.2714 20.6711 18.363 20.519C18.4546 20.367 18.5116 20.1966 18.53 20.02C18.5517 19.8393 18.5335 19.6561 18.4764 19.4832C18.4194 19.3104 18.325 19.1523 18.2 19.02L15.28 15.9ZM12 21.34C10.1143 21.3419 8.27277 20.7699 6.72 19.7L9.65 17C10.3847 17.341 11.185 17.5177 11.995 17.5177C12.805 17.5177 13.6053 17.341 14.34 17L17 19.85C15.5094 20.8131 13.7746 21.33 12 21.34ZM7.84 15C8.03431 14.8191 8.16542 14.5805 8.21402 14.3195C8.26263 14.0585 8.22616 13.7888 8.11 13.55C7.83549 12.9824 7.69196 12.3605 7.69 11.73C7.68721 10.9953 7.87315 10.2722 8.23 9.63C8.36391 9.4018 8.42066 9.13651 8.39184 8.8735C8.36302 8.61049 8.25015 8.36378 8.07 8.17L5.4 5.34C5.27552 5.20064 5.12045 5.092 4.94696 5.0226C4.77346 4.9532 4.58625 4.92493 4.4 4.94C4.22359 4.94901 4.05115 4.9956 3.89421 5.07666C3.73727 5.15771 3.59946 5.27136 3.49 5.41C2.02146 7.29116 1.23205 9.61357 1.25 12C1.2496 14.0011 1.81088 15.9621 2.87 17.66C2.96396 17.8145 3.09218 17.9454 3.24476 18.0425C3.39735 18.1396 3.57021 18.2003 3.75 18.22H3.91C4.22822 18.2235 4.53579 18.1055 4.77 17.89L7.84 15ZM6.27 11.75C6.26962 12.5512 6.44365 13.3428 6.78 14.07L4 16.72C3.06304 15.1491 2.61068 13.3365 2.69963 11.5095C2.78857 9.68255 3.41487 7.92249 4.5 6.45L7 9.06C6.53384 9.88081 6.28273 10.8061 6.27 11.75V11.75Z" fill="black"/>
</svg>
