<svg width="18" height="18" viewBox="0 0 18 18" fill="none" xmlns="http://www.w3.org/2000/svg">
<g clip-path="url(#clip0_1_2034)">
<path d="M15.8325 4.7325C15.762 4.61659 15.6658 4.51844 15.5514 4.44561C15.437 4.37279 15.3073 4.32724 15.1725 4.3125C15.0376 4.2972 14.901 4.31069 14.7717 4.35206C14.6425 4.39343 14.5234 4.46174 14.4225 4.5525L12.225 6.6C12.0875 6.72972 11.9925 6.89798 11.9523 7.08268C11.9122 7.26738 11.9288 7.45991 12 7.635C12.1548 8.00846 12.2363 8.40823 12.24 8.8125C12.2373 9.31353 12.1165 9.80687 11.8875 10.2525C11.7948 10.4188 11.7559 10.6098 11.776 10.7991C11.7962 10.9884 11.8744 11.1669 12 11.31L14.25 13.6425C14.3363 13.7376 14.4417 13.8135 14.5593 13.8652C14.6769 13.9168 14.804 13.9432 14.9325 13.9425H15C15.1354 13.9318 15.2669 13.8912 15.3848 13.8238C15.5028 13.7564 15.6045 13.6638 15.6825 13.5525C16.5692 12.2614 17.0587 10.7391 17.0907 9.17317C17.1227 7.60725 16.6957 6.0662 15.8625 4.74L15.8325 4.7325ZM14.8725 12.8025L12.87 10.6575C13.1249 10.1405 13.2692 9.57595 13.2938 9.00001C13.3183 8.42407 13.2225 7.84934 13.0125 7.3125L15 5.4375C15.6477 6.5137 15.9947 7.74397 16.005 9C16.0061 10.3508 15.6125 11.6725 14.8725 12.8025V12.8025ZM6.70498 5.625C6.83821 5.76457 7.01126 5.85964 7.20052 5.89722C7.38978 5.9348 7.58603 5.91307 7.76248 5.835C8.21016 5.64297 8.69605 5.55662 9.18249 5.58263C9.66892 5.60864 10.1428 5.74632 10.5675 5.985C10.7094 6.06469 10.8697 6.10605 11.0325 6.105C11.2664 6.10606 11.4918 6.01749 11.6625 5.8575L13.7775 3.8775C13.8789 3.78205 13.9577 3.66522 14.0083 3.53549C14.0589 3.40576 14.08 3.26639 14.07 3.1275C14.0615 2.99316 14.0235 2.86233 13.9587 2.74436C13.8939 2.62639 13.8038 2.52417 13.695 2.445C12.4274 1.53744 10.9238 1.01686 9.36637 0.946311C7.80894 0.875761 6.26447 1.25826 4.91998 2.0475C4.7994 2.11752 4.69627 2.21396 4.61833 2.32957C4.54039 2.44518 4.48967 2.57696 4.46998 2.715C4.4571 2.85033 4.47245 2.98686 4.51505 3.11596C4.55765 3.24506 4.62658 3.36391 4.71748 3.465L6.70498 5.625ZM8.99998 1.995C10.4052 1.99186 11.7783 2.41555 12.9375 3.21L11.01 5.0175C10.3924 4.68308 9.70224 4.50538 8.99998 4.5C8.45706 4.50154 7.91961 4.60852 7.41748 4.815L5.59498 2.88C6.63621 2.30014 7.80818 1.99554 8.99998 1.995ZM11.46 11.925C11.324 11.7795 11.1447 11.6818 10.9487 11.6467C10.7526 11.6115 10.5505 11.6408 10.3725 11.73C9.9457 11.9409 9.47604 12.0507 8.99998 12.0507C8.52392 12.0507 8.05426 11.9409 7.62748 11.73C7.45917 11.6456 7.26907 11.6148 7.08272 11.6416C6.89637 11.6684 6.72268 11.7516 6.58498 11.88L4.19998 14.13C4.09815 14.2251 4.019 14.3419 3.96837 14.4717C3.91775 14.6015 3.89694 14.7411 3.90748 14.88C3.91432 15.0158 3.95157 15.1482 4.01648 15.2677C4.08138 15.3871 4.17229 15.4904 4.28248 15.57C5.6227 16.5306 7.22587 17.0559 8.87469 17.0747C10.5235 17.0934 12.1382 16.6048 13.5 15.675C13.6106 15.6009 13.7036 15.5033 13.7722 15.3893C13.8409 15.2752 13.8837 15.1474 13.8975 15.015C13.9138 14.8795 13.9001 14.742 13.8573 14.6124C13.8145 14.4828 13.7437 14.3642 13.65 14.265L11.46 11.925ZM8.99998 16.005C7.58574 16.0064 6.20456 15.5774 5.03998 14.775L7.23748 12.75C7.78852 13.0058 8.38872 13.1383 8.99623 13.1383C9.60374 13.1383 10.2039 13.0058 10.755 12.75L12.75 14.8875C11.632 15.6098 10.3309 15.9975 8.99998 16.005ZM5.87998 11.25C6.02572 11.1143 6.12404 10.9354 6.1605 10.7396C6.19695 10.5439 6.1696 10.3416 6.08248 10.1625C5.8766 9.73682 5.76895 9.27034 5.76748 8.7975C5.76539 8.24648 5.90484 7.70416 6.17248 7.2225C6.27291 7.05135 6.31548 6.85238 6.29386 6.65512C6.27224 6.45786 6.18759 6.27283 6.05248 6.1275L4.04998 4.005C3.95662 3.90048 3.84032 3.819 3.7102 3.76695C3.58008 3.7149 3.43967 3.6937 3.29998 3.705C3.16768 3.71175 3.03834 3.7467 2.92064 3.80749C2.80293 3.86828 2.69957 3.95352 2.61748 4.0575C1.51608 5.46837 0.92402 7.21017 0.93748 9C0.937178 10.5008 1.35814 11.9716 2.15248 13.245C2.22295 13.3609 2.31911 13.4591 2.43355 13.5319C2.54799 13.6047 2.67764 13.6503 2.81248 13.665H2.93248C3.17115 13.6676 3.40183 13.5791 3.57748 13.4175L5.87998 11.25ZM4.70248 8.8125C4.7022 9.41338 4.83272 10.0071 5.08498 10.5525L2.99998 12.54C2.29726 11.3618 1.95799 10.0024 2.0247 8.63214C2.09141 7.26191 2.56113 5.94186 3.37498 4.8375L5.24998 6.795C4.90036 7.4106 4.71203 8.1046 4.70248 8.8125V8.8125Z" fill="#A1A5B7"/>
</g>
<defs>
<clipPath id="clip0_1_2034">
<rect width="18" height="18" fill="white"/>
</clipPath>
</defs>
</svg>
