<svg width="24" height="24" viewBox="0 0 24 24" fill="none" xmlns="http://www.w3.org/2000/svg">
<path d="M21.39 17.39L16 6C15.969 5.93173 15.9423 5.8616 15.92 5.79H20.17C20.4064 5.79006 20.6394 5.73386 20.8498 5.62606C21.0602 5.51825 21.242 5.36192 21.38 5.17C21.5163 4.97614 21.6053 4.75311 21.64 4.51871C21.6748 4.28431 21.6542 4.04504 21.58 3.82C21.3296 3.06942 20.8488 2.41697 20.206 1.95554C19.5632 1.4941 18.7912 1.24721 18 1.25H6C5.36782 1.25211 4.74638 1.41359 4.19314 1.7195C3.6399 2.02541 3.17273 2.46587 2.83481 3.00016C2.49689 3.53445 2.29914 4.14531 2.25985 4.77627C2.22055 5.40723 2.34098 6.03791 2.61 6.61L8 18C8.03101 18.0683 8.05773 18.1384 8.08 18.21H4.23C3.92937 18.2109 3.6341 18.2897 3.37297 18.4386C3.11185 18.5876 2.89377 18.8017 2.74 19.06C2.59244 19.3135 2.5147 19.6016 2.5147 19.895C2.5147 20.1884 2.59244 20.4765 2.74 20.73C3.05631 21.3318 3.5307 21.8361 4.11215 22.1885C4.6936 22.5408 5.3601 22.7281 6.04 22.73H18C18.6322 22.7279 19.2536 22.5664 19.8069 22.2605C20.3601 21.9546 20.8273 21.5141 21.1652 20.9798C21.5031 20.4456 21.7009 19.8347 21.7402 19.2037C21.7794 18.5728 21.659 17.9421 21.39 17.37V17.39ZM18 2.75C18.4675 2.7505 18.9235 2.89466 19.3062 3.16297C19.689 3.43128 19.9801 3.81075 20.14 4.25H10C9.91764 4.25116 9.83676 4.22808 9.76742 4.18363C9.69807 4.13918 9.64333 4.07532 9.61 4C9.49108 3.54719 9.28377 3.12237 9 2.75H18ZM4 20.06C3.98108 20.0319 3.97098 19.9988 3.97098 19.965C3.97098 19.9311 3.98108 19.8981 4 19.87C4.02038 19.8346 4.04945 19.8051 4.08444 19.7841C4.11944 19.7631 4.15921 19.7513 4.2 19.75H8.11C8.11 19.75 8.11 19.8 8.11 19.82L8 20C7.96266 20.0799 7.9192 20.1568 7.87 20.23C7.85043 20.2721 7.827 20.3123 7.8 20.35L7.6 20.6C7.6 20.6 7.6 20.6 7.6 20.65C7.50673 20.7411 7.40642 20.8247 7.3 20.9H7.21L6.93 21L6.81 21.05C6.72034 21.0904 6.62642 21.1206 6.53 21.14H6.41C6.27353 21.1504 6.13647 21.1504 6 21.14C5.60042 21.1558 5.20394 21.0639 4.85207 20.8739C4.50021 20.6839 4.20591 20.4028 4 20.06V20.06ZM18 21.25H9L9.06 21.16L9.18 21C9.25995 20.8721 9.33015 20.7384 9.39 20.6C9.42932 20.5295 9.46276 20.456 9.49 20.38C9.49 20.24 9.59 20.09 9.63 19.94C9.67 19.79 9.63 19.8 9.63 19.73C9.67359 19.4991 9.69701 19.2649 9.7 19.03C9.701 18.4733 9.57803 17.9233 9.34 17.42L4 6C3.84567 5.68979 3.77012 5.34634 3.78 5C3.7787 4.45476 3.97542 3.9276 4.33361 3.51652C4.69179 3.10544 5.18706 2.83841 5.72734 2.76507C6.26762 2.69173 6.81615 2.81707 7.27096 3.11779C7.72577 3.41851 8.05591 3.87415 8.2 4.4C8.31713 4.78739 8.55491 5.12726 8.87868 5.37009C9.20245 5.61292 9.5953 5.74602 10 5.75H14.31C14.3699 6.04649 14.4639 6.33506 14.59 6.61L20 18C20.1543 18.3102 20.2299 18.6537 20.22 19C20.2201 19.5916 19.9871 20.1594 19.5716 20.5805C19.1561 21.0016 18.5915 21.2421 18 21.25Z" fill="black"/>
</svg>
