<svg width="20" height="20" viewBox="0 0 20 20" fill="none" xmlns="http://www.w3.org/2000/svg">
<path d="M18.7718 16.7925L15.8293 14.0425C17.0798 12.3756 17.6579 10.2995 17.449 8.2262C17.2401 6.15289 16.2595 4.23388 14.7016 2.84993C13.1437 1.46598 11.1225 0.718233 9.03907 0.755068C6.95559 0.791903 4.96208 1.61062 3.45412 3.04878C1.94615 4.48693 1.03392 6.43941 0.898443 8.51881C0.762961 10.5982 1.41413 12.6526 2.72273 14.2742C4.03134 15.8959 5.90175 16.9664 7.96284 17.2732C10.0239 17.5801 12.1251 17.1009 13.8493 15.9308V15.9308L16.8743 18.8C17.1258 19.0298 17.4506 19.163 17.791 19.1758C17.9792 19.1774 18.1656 19.139 18.3378 19.0632C18.5101 18.9873 18.6643 18.8757 18.7902 18.7358C18.9176 18.6076 19.0182 18.4553 19.0864 18.2879C19.1545 18.1204 19.1887 17.9411 19.187 17.7603C19.1853 17.5796 19.1477 17.4009 19.0764 17.2348C19.0052 17.0687 18.9016 16.9183 18.7718 16.7925V16.7925ZM9.17433 14.8858C8.01479 14.884 6.8818 14.5386 5.91844 13.8933C4.95507 13.248 4.20455 12.3316 3.76165 11.26C3.31876 10.1884 3.20335 9.00956 3.43001 7.87239C3.65667 6.73523 4.21522 5.69073 5.03514 4.87081C5.85506 4.0509 6.89955 3.49234 8.03672 3.26568C9.17389 3.03902 10.3527 3.15443 11.4243 3.59732C12.496 4.04022 13.4123 4.79075 14.0576 5.75411C14.703 6.71747 15.0483 7.85046 15.0502 9.01C15.0502 9.78162 14.8982 10.5457 14.6029 11.2586C14.3076 11.9715 13.8748 12.6192 13.3292 13.1648C12.7835 13.7105 12.1358 14.1433 11.4229 14.4386C10.71 14.7338 9.94595 14.8858 9.17433 14.8858Z" fill="#A1A5B7"/>
</svg>
