<svg width="18" height="18" viewBox="0 0 18 18" fill="none" xmlns="http://www.w3.org/2000/svg">
<path d="M6.56251 16.6125C6.22042 16.6097 5.88475 16.5193 5.58751 16.35L4.36501 15.6375C4.14256 15.5102 3.94772 15.3399 3.7919 15.1364C3.63608 14.9329 3.5224 14.7004 3.45751 14.4525C3.38889 14.202 3.37079 13.9404 3.40427 13.6829C3.43775 13.4254 3.52213 13.1771 3.65251 12.9525L3.98251 12.39C3.82064 12.1502 3.6753 11.8996 3.54751 11.64H2.87251C2.61643 11.639 2.36305 11.5876 2.12684 11.4887C1.89063 11.3898 1.67622 11.2453 1.49584 11.0636C1.31546 10.8818 1.17265 10.6663 1.07557 10.4293C0.978482 10.1923 0.92902 9.93858 0.930007 9.6825V8.25C0.93218 7.99975 0.983638 7.75239 1.08144 7.52204C1.17924 7.29169 1.32147 7.08286 1.50001 6.9075C1.68005 6.72741 1.89411 6.58493 2.12974 6.48836C2.36537 6.39179 2.61786 6.34306 2.87251 6.345H3.53251C3.66124 6.08439 3.80915 5.8337 3.97501 5.595L3.64501 5.0025C3.51779 4.77944 3.43625 4.53329 3.40513 4.2784C3.37401 4.02351 3.39393 3.76497 3.46374 3.51786C3.53354 3.27075 3.65184 3.04 3.81172 2.83906C3.97161 2.63813 4.16989 2.47103 4.39501 2.3475L5.62501 1.6425C5.84856 1.5173 6.09459 1.43739 6.34903 1.40733C6.60348 1.37727 6.86136 1.39764 7.10793 1.4673C7.3545 1.53695 7.58493 1.65451 7.78604 1.81326C7.98715 1.97201 8.155 2.16884 8.28001 2.3925L8.60251 2.955C8.8673 2.94 9.13272 2.94 9.39751 2.955L9.75001 2.3625C9.87826 2.14083 10.0489 1.94659 10.2522 1.79088C10.4556 1.63517 10.6876 1.52104 10.935 1.455C11.1852 1.38424 11.4472 1.36504 11.705 1.39856C11.9629 1.43208 12.2112 1.51762 12.435 1.65L13.6575 2.355C14.1048 2.61379 14.4311 3.03957 14.5647 3.5388C14.6983 4.03803 14.6283 4.56988 14.37 5.0175L14.0475 5.5875C14.2163 5.8257 14.3668 6.07643 14.4975 6.3375H15.1725C15.6891 6.34343 16.1823 6.55332 16.5448 6.9214C16.9073 7.28948 17.1095 7.78592 17.1075 8.3025V9.75C17.1016 10.264 16.8938 10.755 16.5289 11.117C16.1641 11.479 15.6715 11.6831 15.1575 11.685H14.49C14.3671 11.9282 14.2293 12.1637 14.0775 12.39L14.415 12.9825C14.5402 13.206 14.6201 13.4521 14.6502 13.7065C14.6802 13.961 14.6599 14.2189 14.5902 14.4654C14.5206 14.712 14.403 14.9424 14.2442 15.1435C14.0855 15.3446 13.8887 15.5125 13.665 15.6375L12.435 16.3425C12.2117 16.4687 11.9656 16.5494 11.7109 16.58C11.4563 16.6106 11.1981 16.5904 10.9512 16.5207C10.7044 16.451 10.4738 16.3331 10.2728 16.1737C10.0718 16.0144 9.90428 15.8169 9.78001 15.5925L9.45001 15.03C9.17046 15.0524 8.88956 15.0524 8.61001 15.03L8.26501 15.615C8.09559 15.9177 7.8485 16.1696 7.54924 16.345C7.24997 16.5203 6.90936 16.6127 6.56251 16.6125ZM2.88751 7.5C2.66989 7.49952 2.46042 7.58277 2.30251 7.7325C2.226 7.80944 2.16542 7.90071 2.12424 8.00109C2.08305 8.10148 2.06208 8.209 2.06251 8.3175V9.7275C2.07568 9.93451 2.16635 10.129 2.31646 10.2721C2.46657 10.4153 2.6651 10.4966 2.87251 10.5H3.90751C4.01858 10.4982 4.12757 10.5303 4.22 10.5919C4.31243 10.6535 4.38393 10.7418 4.42501 10.845C4.59983 11.2572 4.82668 11.6454 5.10001 12C5.16701 12.0897 5.20686 12.1967 5.21484 12.3084C5.22281 12.4201 5.19858 12.5317 5.14501 12.63L4.62751 13.5075C4.52228 13.6998 4.49284 13.9246 4.54501 14.1375C4.60184 14.3467 4.73942 14.5247 4.92751 14.6325L6.15001 15.345C6.24387 15.4009 6.34816 15.4371 6.45649 15.4513C6.56483 15.4654 6.67491 15.4574 6.78001 15.4275C6.99018 15.3688 7.16996 15.232 7.28251 15.045L7.80001 14.145C7.85707 14.0495 7.94051 13.9725 8.0403 13.9232C8.14009 13.874 8.25198 13.8546 8.36251 13.8675C8.79592 13.92 9.23409 13.92 9.66751 13.8675C9.77761 13.8499 9.89046 13.8663 9.99098 13.9145C10.0915 13.9628 10.1749 14.0406 10.23 14.1375L10.74 15.0225C10.8485 15.2124 11.0279 15.3515 11.2389 15.4091C11.4498 15.4668 11.675 15.4383 11.865 15.33L13.0875 14.625C13.1826 14.5731 13.2661 14.5025 13.3331 14.4174C13.4002 14.3323 13.4493 14.2346 13.4775 14.13C13.5297 13.9171 13.5002 13.6923 13.395 13.5L12.8775 12.6C12.8172 12.5074 12.785 12.3993 12.785 12.2887C12.785 12.1782 12.8172 12.0701 12.8775 11.9775C13.1414 11.6368 13.3606 11.2638 13.53 10.8675C13.567 10.761 13.6373 10.6691 13.7305 10.6057C13.8237 10.5422 13.9348 10.5104 14.0475 10.515H15.0675C15.283 10.5235 15.4935 10.4489 15.6555 10.3065C15.8174 10.1641 15.9184 9.96482 15.9375 9.75V8.325C15.9379 8.2165 15.917 8.10898 15.8758 8.00859C15.8346 7.90821 15.774 7.81694 15.6975 7.74C15.6228 7.66202 15.5332 7.59991 15.434 7.55738C15.3348 7.51486 15.228 7.49279 15.12 7.4925H14.0925C13.9813 7.49066 13.873 7.45631 13.781 7.39367C13.6891 7.33103 13.6174 7.24285 13.575 7.14C13.4 6.73093 13.1704 6.34744 12.8925 6C12.8249 5.91036 12.7853 5.80274 12.7786 5.69066C12.7719 5.57858 12.7985 5.46703 12.855 5.37L13.365 4.485C13.4733 4.29502 13.5018 4.0698 13.4441 3.85885C13.3865 3.6479 13.2474 3.46847 13.0575 3.36L11.835 2.625C11.6581 2.52262 11.4483 2.49304 11.25 2.5425C11.0391 2.59979 10.8589 2.73699 10.7475 2.925L10.23 3.825C10.1744 3.92188 10.0912 4.00001 9.99103 4.04943C9.89085 4.09885 9.77822 4.11732 9.66751 4.1025C9.24664 4.05003 8.82088 4.05003 8.40001 4.1025C8.29038 4.11678 8.17899 4.098 8.0801 4.04856C7.98122 3.99912 7.89936 3.92127 7.84501 3.825L7.30501 2.9325C7.19514 2.7441 7.01573 2.60633 6.80535 2.54883C6.59497 2.49133 6.37043 2.51868 6.18001 2.625L4.95001 3.315C4.76032 3.42362 4.62097 3.60248 4.56204 3.81297C4.5031 4.02345 4.52931 4.24867 4.63501 4.44L5.14501 5.3475C5.20757 5.44701 5.23692 5.56382 5.22884 5.68108C5.22075 5.79835 5.17564 5.91002 5.10001 6C4.82885 6.3453 4.60208 6.72325 4.42501 7.125C4.38307 7.22761 4.31136 7.31531 4.21912 7.3768C4.12689 7.43829 4.01836 7.47075 3.90751 7.47H2.88751V7.5ZM9.00001 12C8.40666 12 7.82664 11.8241 7.3333 11.4944C6.83995 11.1648 6.45543 10.6962 6.22837 10.148C6.00131 9.59987 5.9419 8.99667 6.05765 8.41473C6.17341 7.83279 6.45913 7.29824 6.87869 6.87868C7.29824 6.45912 7.83279 6.1734 8.41474 6.05764C8.99668 5.94189 9.59988 6.0013 10.1481 6.22836C10.6962 6.45542 11.1648 6.83994 11.4944 7.33329C11.8241 7.82664 12 8.40666 12 9C12 9.79565 11.6839 10.5587 11.1213 11.1213C10.5587 11.6839 9.79566 12 9.00001 12ZM9.00001 7.125C8.62917 7.125 8.26666 7.23497 7.95831 7.44099C7.64997 7.64702 7.40965 7.93986 7.26773 8.28247C7.12582 8.62508 7.08869 9.00208 7.16103 9.36579C7.23338 9.72951 7.41196 10.0636 7.67418 10.3258C7.93641 10.588 8.2705 10.7666 8.63421 10.839C8.99793 10.9113 9.37493 10.8742 9.71754 10.7323C10.0602 10.5904 10.353 10.35 10.559 10.0417C10.765 9.73335 10.875 9.37084 10.875 9C10.875 8.50272 10.6775 8.0258 10.3258 7.67417C9.9742 7.32254 9.49729 7.125 9.00001 7.125V7.125Z" fill="#A1A5B7"/>
</svg>
