<svg width="24" height="24" viewBox="0 0 24 24" fill="none" xmlns="http://www.w3.org/2000/svg">
<path d="M8.75 22.15C8.29388 22.1463 7.84632 22.0258 7.45 21.8L5.82 20.85C5.5234 20.6803 5.26362 20.4532 5.05586 20.1819C4.84809 19.9106 4.69652 19.6006 4.61 19.27C4.51851 18.9361 4.49438 18.5872 4.53901 18.2439C4.58365 17.9005 4.69616 17.5695 4.87 17.27L5.31 16.52C5.09417 16.2002 4.90039 15.8661 4.73 15.52H3.83C3.48856 15.5187 3.15073 15.4501 2.83578 15.3183C2.52084 15.1864 2.23495 14.9938 1.99445 14.7514C1.75394 14.5091 1.56353 14.2217 1.43408 13.9057C1.30463 13.5898 1.23868 13.2514 1.24 12.91V11C1.2429 10.6663 1.31151 10.3365 1.44191 10.0294C1.57231 9.72225 1.76196 9.44382 2 9.21C2.24005 8.96988 2.52547 8.7799 2.83965 8.65114C3.15382 8.52238 3.49047 8.45741 3.83 8.46H4.71C4.88165 8.11252 5.07886 7.77827 5.3 7.46L4.86 6.67C4.69038 6.37259 4.58166 6.04439 4.54016 5.70454C4.49867 5.36468 4.52523 5.01997 4.61831 4.69048C4.71138 4.361 4.86911 4.05333 5.08229 3.78542C5.29547 3.51751 5.55984 3.29471 5.86 3.13L7.5 2.19C7.79807 2.02307 8.12611 1.91652 8.46537 1.87644C8.80464 1.83636 9.14847 1.86353 9.47723 1.9564C9.80599 2.04927 10.1132 2.20602 10.3814 2.41768C10.6495 2.62935 10.8733 2.89179 11.04 3.19L11.47 3.94C11.8231 3.92 12.1769 3.92 12.53 3.94L13 3.15C13.171 2.85444 13.3986 2.59546 13.6696 2.38785C13.9407 2.18023 14.2501 2.02805 14.58 1.94C14.9136 1.84566 15.2629 1.82005 15.6067 1.86475C15.9505 1.90944 16.2816 2.0235 16.58 2.2L18.21 3.14C18.8064 3.48505 19.2415 4.05276 19.4197 4.7184C19.5978 5.38404 19.5044 6.09317 19.16 6.69L18.73 7.45C18.9551 7.7676 19.1557 8.1019 19.33 8.45H20.23C20.9187 8.45791 21.5764 8.73775 22.0597 9.22853C22.543 9.71931 22.8127 10.3812 22.81 11.07V13C22.8021 13.6853 22.525 14.34 22.0386 14.8227C21.5521 15.3054 20.8953 15.5774 20.21 15.58H19.32C19.1561 15.9043 18.9724 16.2182 18.77 16.52L19.22 17.31C19.3869 17.6081 19.4935 17.9361 19.5336 18.2754C19.5736 18.6146 19.5465 18.9585 19.4536 19.2872C19.3607 19.616 19.204 19.9232 18.9923 20.1914C18.7806 20.4595 18.5182 20.6833 18.22 20.85L16.58 21.79C16.2823 21.9583 15.9541 22.0659 15.6146 22.1067C15.275 22.1475 14.9308 22.1206 14.6016 22.0276C14.2725 21.9346 13.9651 21.7774 13.697 21.565C13.429 21.3526 13.2057 21.0892 13.04 20.79L12.6 20.04C12.2273 20.0699 11.8527 20.0699 11.48 20.04L11.02 20.82C10.7941 21.2235 10.4647 21.5595 10.0656 21.7933C9.66662 22.0271 9.21246 22.1502 8.75 22.15ZM3.85 10C3.55984 9.99936 3.28056 10.1104 3.07 10.31C2.96799 10.4126 2.88722 10.5343 2.83231 10.6681C2.7774 10.802 2.74943 10.9453 2.75 11.09V12.97C2.76756 13.246 2.88846 13.5053 3.08861 13.6962C3.28875 13.8871 3.55346 13.9955 3.83 14H5.21C5.3581 13.9976 5.50342 14.0403 5.62666 14.1225C5.7499 14.2047 5.84524 14.3224 5.9 14.46C6.1331 15.0096 6.43556 15.5271 6.8 16C6.88933 16.1196 6.94247 16.2623 6.9531 16.4112C6.96374 16.5601 6.93143 16.7089 6.86 16.84L6.17 18.01C6.02969 18.2664 5.99045 18.5661 6.06 18.85C6.13577 19.1289 6.31922 19.3663 6.57 19.51L8.2 20.46C8.32515 20.5345 8.46421 20.5828 8.60865 20.6017C8.75309 20.6206 8.89987 20.6098 9.04 20.57C9.32023 20.4917 9.55993 20.3093 9.71 20.06L10.4 18.86C10.4761 18.7326 10.5873 18.6299 10.7204 18.5643C10.8534 18.4987 11.0026 18.4729 11.15 18.49C11.7279 18.56 12.3121 18.56 12.89 18.49C13.0368 18.4665 13.1873 18.4884 13.3213 18.5527C13.4553 18.617 13.5665 18.7208 13.64 18.85L14.32 20.03C14.4646 20.2832 14.7039 20.4686 14.9851 20.5455C15.2664 20.6224 15.5667 20.5844 15.82 20.44L17.45 19.5C17.5767 19.4308 17.6881 19.3366 17.7775 19.2232C17.8669 19.1098 17.9323 18.9794 17.97 18.84C18.0396 18.5561 18.0003 18.2564 17.86 18L17.17 16.8C17.0895 16.6765 17.0467 16.5324 17.0467 16.385C17.0467 16.2376 17.0895 16.0935 17.17 15.97C17.5218 15.5157 17.8142 15.0184 18.04 14.49C18.0893 14.3479 18.183 14.2255 18.3073 14.1409C18.4315 14.0562 18.5798 14.0138 18.73 14.02H20.09C20.3773 14.0314 20.658 13.9318 20.874 13.742C21.0899 13.5521 21.2246 13.2864 21.25 13V11.1C21.2506 10.9553 21.2226 10.812 21.1677 10.6781C21.1128 10.5443 21.032 10.4226 20.93 10.32C20.8305 10.216 20.7109 10.1332 20.5786 10.0765C20.4463 10.0198 20.3039 9.99038 20.16 9.99H18.79C18.6417 9.98755 18.4973 9.94175 18.3747 9.85823C18.2521 9.77471 18.1566 9.65714 18.1 9.52C17.8667 8.97457 17.5606 8.46326 17.19 8C17.0999 7.88047 17.047 7.73699 17.0381 7.58755C17.0292 7.43811 17.0647 7.28937 17.14 7.16L17.82 5.98C17.9644 5.72669 18.0024 5.4264 17.9255 5.14513C17.8486 4.86386 17.6632 4.62463 17.41 4.48L15.78 3.5C15.5441 3.3635 15.2644 3.32405 15 3.39C14.7188 3.46638 14.4785 3.64932 14.33 3.9L13.64 5.1C13.5659 5.22917 13.4549 5.33334 13.3214 5.39924C13.1878 5.46513 13.0376 5.48977 12.89 5.47C12.3288 5.40004 11.7612 5.40004 11.2 5.47C11.0538 5.48904 10.9053 5.464 10.7735 5.39808C10.6416 5.33216 10.5325 5.22836 10.46 5.1L9.74 3.91C9.59351 3.6588 9.3543 3.47511 9.07379 3.39844C8.79329 3.32177 8.4939 3.35824 8.24 3.5L6.6 4.42C6.34709 4.56483 6.16129 4.80331 6.0827 5.08396C6.00412 5.3646 6.03907 5.6649 6.18 5.92L6.86 7.13C6.94342 7.26268 6.98255 7.41842 6.97177 7.57478C6.96099 7.73113 6.90084 7.88003 6.8 8C6.43846 8.4604 6.1361 8.96433 5.9 9.5C5.84408 9.63681 5.74847 9.75375 5.62549 9.83573C5.50251 9.91772 5.3578 9.961 5.21 9.96H3.85V10ZM12 16C11.2089 16 10.4355 15.7654 9.77772 15.3259C9.11992 14.8864 8.60723 14.2616 8.30448 13.5307C8.00173 12.7998 7.92252 11.9956 8.07686 11.2196C8.2312 10.4437 8.61216 9.73098 9.17157 9.17157C9.73098 8.61216 10.4437 8.2312 11.2196 8.07686C11.9956 7.92252 12.7998 8.00173 13.5307 8.30448C14.2616 8.60723 14.8864 9.11992 15.3259 9.77772C15.7654 10.4355 16 11.2089 16 12C16 13.0609 15.5786 14.0783 14.8284 14.8284C14.0783 15.5786 13.0609 16 12 16ZM12 9.5C11.5055 9.5 11.0222 9.64662 10.6111 9.92133C10.2 10.196 9.87952 10.5865 9.6903 11.0433C9.50108 11.5001 9.45157 12.0028 9.54804 12.4877C9.6445 12.9727 9.8826 13.4181 10.2322 13.7678C10.5819 14.1174 11.0273 14.3555 11.5123 14.452C11.9972 14.5484 12.4999 14.4989 12.9567 14.3097C13.4135 14.1205 13.804 13.8 14.0787 13.3889C14.3534 12.9778 14.5 12.4945 14.5 12C14.5 11.337 14.2366 10.7011 13.7678 10.2322C13.2989 9.76339 12.663 9.5 12 9.5V9.5Z" fill="black"/>
</svg>
