<svg width="25" height="24" viewBox="0 0 25 24" fill="none" xmlns="http://www.w3.org/2000/svg">
<g opacity="0.3">
<path d="M16.67 21.91L9.11999 22C8.46594 22.0093 7.83315 21.7678 7.35151 21.3253C6.86987 20.8827 6.57592 20.2725 6.52999 19.62L5.79999 9.18C5.78882 9.02726 5.80966 8.87387 5.86119 8.72965C5.91272 8.58543 5.99379 8.45356 6.09922 8.34249C6.20465 8.23141 6.33211 8.14357 6.47345 8.08459C6.61478 8.02562 6.76688 7.9968 6.91999 7.99999H18.68C18.8322 7.99692 18.9834 8.02547 19.124 8.08384C19.2646 8.14221 19.3916 8.22914 19.4968 8.33912C19.6021 8.44909 19.6834 8.57972 19.7356 8.72275C19.7878 8.86577 19.8097 9.01806 19.8 9.16999L19.21 19.49C19.1743 20.141 18.8917 20.7538 18.4197 21.2035C17.9477 21.6532 17.3219 21.9059 16.67 21.91Z" fill="#F1416C"/>
</g>
<path d="M15.03 13.6H10.57C10.3711 13.6 10.1803 13.521 10.0397 13.3803C9.89902 13.2397 9.82001 13.0489 9.82001 12.85C9.82001 12.6511 9.89902 12.4603 10.0397 12.3197C10.1803 12.179 10.3711 12.1 10.57 12.1H15.03C15.2289 12.1 15.4197 12.179 15.5603 12.3197C15.701 12.4603 15.78 12.6511 15.78 12.85C15.78 13.0489 15.701 13.2397 15.5603 13.3803C15.4197 13.521 15.2289 13.6 15.03 13.6Z" fill="#F1416C"/>
<path d="M14.25 17.3H11.35C11.1511 17.3 10.9604 17.221 10.8197 17.0803C10.6791 16.9397 10.6 16.7489 10.6 16.55C10.6 16.3511 10.6791 16.1603 10.8197 16.0197C10.9604 15.879 11.1511 15.8 11.35 15.8H14.25C14.4489 15.8 14.6397 15.879 14.7804 16.0197C14.921 16.1603 15 16.3511 15 16.55C15 16.7489 14.921 16.9397 14.7804 17.0803C14.6397 17.221 14.4489 17.3 14.25 17.3V17.3Z" fill="#F1416C"/>
<path d="M21.05 7.16H20.94C15.5421 6.41778 10.068 6.41778 4.67001 7.16C4.47664 7.18546 4.28096 7.1346 4.12446 7.01819C3.96797 6.90179 3.86298 6.729 3.83176 6.53647C3.80054 6.34395 3.84554 6.14683 3.95723 5.98693C4.06892 5.82704 4.2385 5.71694 4.43001 5.68C9.97931 4.8987 15.6107 4.8987 21.16 5.68C21.3449 5.71036 21.5117 5.80882 21.6277 5.95601C21.7436 6.1032 21.8002 6.28845 21.7864 6.4753C21.7727 6.66216 21.6894 6.83708 21.5531 6.96565C21.4168 7.09422 21.2374 7.16712 21.05 7.17V7.16Z" fill="#F1416C"/>
<path d="M16.8 5.84H8.79999L9.24999 3.52C9.33019 3.09863 9.5528 2.71764 9.88052 2.4409C10.2082 2.16416 10.6211 2.00849 11.05 2H14.58C15.0166 2.00166 15.4391 2.15526 15.7749 2.43444C16.1106 2.71363 16.3387 3.10097 16.42 3.53L16.8 5.84Z" fill="#F1416C"/>
</svg>
