<svg width="24" height="24" viewBox="0 0 24 24" fill="none" xmlns="http://www.w3.org/2000/svg">
<g opacity="0.3">
<path d="M15.87 21.91L8.32 22C7.66595 22.0093 7.03316 21.7678 6.55152 21.3253C6.06988 20.8827 5.77593 20.2725 5.73 19.62L5 9.18C4.98883 9.02726 5.00967 8.87387 5.0612 8.72966C5.11273 8.58544 5.1938 8.45357 5.29923 8.34249C5.40466 8.23141 5.53213 8.14358 5.67346 8.0846C5.81479 8.02562 5.96689 7.99681 6.12 8H17.88C18.0322 7.99692 18.1834 8.02547 18.324 8.08385C18.4646 8.14222 18.5916 8.22915 18.6969 8.33912C18.8021 8.4491 18.8834 8.57973 18.9356 8.72275C18.9878 8.86577 19.0097 9.01807 19 9.17L18.41 19.49C18.3744 20.141 18.0917 20.7538 17.6197 21.2035C17.1477 21.6532 16.5219 21.9059 15.87 21.91Z" fill="black"/>
</g>
<path d="M14.23 13.6H9.77C9.57109 13.6 9.38032 13.521 9.23967 13.3803C9.09902 13.2397 9.02 13.0489 9.02 12.85C9.02 12.6511 9.09902 12.4603 9.23967 12.3197C9.38032 12.179 9.57109 12.1 9.77 12.1H14.23C14.4289 12.1 14.6197 12.179 14.7603 12.3197C14.901 12.4603 14.98 12.6511 14.98 12.85C14.98 13.0489 14.901 13.2397 14.7603 13.3803C14.6197 13.521 14.4289 13.6 14.23 13.6Z" fill="black"/>
<path d="M13.45 17.3H10.55C10.3511 17.3 10.1603 17.221 10.0197 17.0803C9.87902 16.9397 9.8 16.7489 9.8 16.55C9.8 16.3511 9.87902 16.1603 10.0197 16.0197C10.1603 15.879 10.3511 15.8 10.55 15.8H13.45C13.6489 15.8 13.8397 15.879 13.9803 16.0197C14.121 16.1603 14.2 16.3511 14.2 16.55C14.2 16.7489 14.121 16.9397 13.9803 17.0803C13.8397 17.221 13.6489 17.3 13.45 17.3V17.3Z" fill="black"/>
<path d="M20.25 7.16H20.14C14.7421 6.41778 9.26794 6.41778 3.87 7.16C3.67663 7.18547 3.48094 7.1346 3.32445 7.0182C3.16796 6.90179 3.06296 6.729 3.03174 6.53647C3.00052 6.34395 3.04553 6.14683 3.15722 5.98694C3.26891 5.82704 3.43849 5.71695 3.63 5.68C9.1793 4.8987 14.8107 4.8987 20.36 5.68C20.5449 5.71036 20.7117 5.80882 20.8277 5.95601C20.9436 6.1032 21.0002 6.28845 20.9864 6.47531C20.9726 6.66216 20.8894 6.83709 20.7531 6.96566C20.6168 7.09422 20.4373 7.16712 20.25 7.17V7.16Z" fill="black"/>
<path d="M16 5.84H8L8.45 3.52C8.5302 3.09863 8.75282 2.71764 9.08054 2.4409C9.40825 2.16416 9.82115 2.00849 10.25 2H13.78C14.2167 2.00166 14.6391 2.15526 14.9749 2.43444C15.3106 2.71363 15.5387 3.10097 15.62 3.53L16 5.84Z" fill="black"/>
</svg>
